<svg width="100%" height="100%" viewBox="0 0 278 82" fill="none" xmlns="http://www.w3.org/2000/svg">
<path fill-rule="evenodd" clip-rule="evenodd" d="M44.2106 0.933228L0.73291 16.7575L16.5578 60.2352L60.0356 44.4116L44.2106 0.933228Z" fill="#0066FF"/>
<path fill-rule="evenodd" clip-rule="evenodd" d="M118.364 19.87C122.77 19.87 124.889 23.2164 125.168 26.9538H111.224C111.949 22.324 114.348 19.87 118.364 19.87ZM131.973 31.4715C132.196 31.4715 132.419 31.2486 132.419 31.0257C132.252 21.2088 127.232 15.1848 118.308 15.1848C109.606 15.1848 104.308 21.2088 104.308 30.3002C104.308 39.0573 109.272 45.2489 118.531 45.2489C125.91 45.2489 130.562 41.0936 131.622 35.8858C131.678 35.6622 131.455 35.4393 131.232 35.4393H125.609C125.386 35.4393 125.107 35.6068 125.052 35.8858H125.051C124.138 38.9966 121.926 40.5076 118.642 40.5076C113.79 40.5076 111.28 37.6064 111.001 31.4715H131.973ZM185.181 30.3019C185.181 37.1615 182.838 40.5079 177.986 40.5079C173.078 40.5079 170.624 37.1061 170.625 30.3573C170.625 23.5531 172.967 19.9838 177.931 19.9277C182.783 19.9277 185.181 23.497 185.181 30.3019ZM163.765 30.3019C163.765 39.3927 168.896 45.2485 177.986 45.2485C187.022 45.2485 192.097 39.2806 192.097 30.1344C192.097 21.0436 187.022 15.1871 177.986 15.1871C168.896 15.1871 163.765 21.2105 163.765 30.3019ZM95.5618 30.413C95.5057 37.0497 92.8848 40.3961 88.3671 40.3961C83.6826 40.3961 81.2285 36.5479 81.2285 29.8551C81.2285 23.7209 83.6265 19.9841 88.5346 20.0395C93.0523 20.0949 95.6178 23.7763 95.5618 30.413ZM95.2828 44.133C95.2828 44.3559 95.5057 44.5795 95.7293 44.5795H101.585C101.808 44.5795 102.031 44.3559 102.031 44.133L101.864 30.1341L102.031 16.3027C102.031 16.0798 101.808 15.8568 101.585 15.8568H95.6732C95.4503 15.8568 95.2274 16.0798 95.2274 16.3027L95.3949 19.5376C93.4427 16.7492 90.4868 15.2989 86.6939 15.2989C78.9973 15.2989 74.4243 21.9917 74.4243 30.3016C74.4243 38.6669 78.6069 45.1367 86.5824 45.1367C90.4307 45.1367 93.4427 43.4635 95.3943 40.619L95.2828 44.133ZM195.16 44.5792C194.937 44.5792 194.714 44.3563 194.714 44.1327L194.881 31.0822L194.826 16.3031C194.826 16.0795 195.049 15.8566 195.272 15.8566H200.905C201.128 15.8566 201.351 16.0795 201.351 16.3031L201.184 20.0399C203.024 17.3622 206.315 15.1872 210.609 15.1872C216.577 15.1872 220.425 19.203 220.425 26.4537V32.3649L220.536 44.1327C220.536 44.3563 220.313 44.5792 220.091 44.5792H214.178C213.955 44.5792 213.732 44.3563 213.732 44.1327L213.844 32.3649V26.6205C213.844 22.5493 211.669 20.4303 208.601 20.4303C205.255 20.4303 202.076 23.2748 201.518 29.2421V32.3649L201.63 44.1327C201.63 44.3563 201.406 44.5792 201.184 44.5792H195.16ZM147.98 39.7822C143.239 39.8383 140.729 36.3237 140.729 29.7985C140.729 23.663 143.183 19.9816 147.98 20.093C152.554 20.1491 155.063 23.7744 155.008 30.3004C154.952 36.6588 152.386 39.7822 147.98 39.7822ZM161.478 16.3001C161.478 16.0772 161.255 15.8543 161.032 15.8543H155.175C154.952 15.8543 154.729 16.0772 154.729 16.3001L154.84 19.5357C152.944 16.8581 150.044 15.4078 146.251 15.4078C138.497 15.4078 133.924 21.9898 133.924 30.0768C133.924 38.2205 138.218 44.4121 146.53 44.4121C150.323 44.4121 153.223 42.7389 155.119 39.8937V43.1847C155.119 48.5947 152.275 50.938 148.091 50.938C144.652 50.938 142.352 49.6592 141.701 47.1518C141.645 46.8735 141.422 46.7059 141.199 46.7059H135.407C135.184 46.7059 134.962 46.9289 134.962 47.1518C135.79 52.9836 141.048 55.73 147.924 55.6225C156.737 55.6225 161.422 50.9934 161.367 43.2962L161.311 29.1851L161.478 16.3001ZM84.2548 69.7012C84.2301 72.9528 82.8792 74.604 80.6528 74.604C78.2267 74.604 77.0768 72.5283 77.0768 69.4503C77.0768 66.5998 78.176 64.6229 80.5533 64.5728H80.9277C83.0541 64.6983 84.2801 66.5497 84.2548 69.7012ZM84.1547 75.8787C84.1547 75.9535 84.2301 76.0289 84.3042 76.0289H86.2804C86.3558 76.0289 86.4305 75.9535 86.4305 75.8787L86.3811 69.4756L86.4305 63.2981C86.4305 63.2227 86.3558 63.1472 86.2804 63.1472H84.2801C84.2047 63.1472 84.1293 63.2227 84.1293 63.2981L84.18 65.1228C83.3291 63.6725 81.9535 62.8983 80.1275 62.8983C76.7264 62.8983 74.7495 65.899 74.7495 69.6258C74.7495 73.3526 76.6009 76.2799 80.0775 76.2799C81.9282 76.2799 83.3291 75.4282 84.2047 73.9786L84.1547 75.8787ZM93.6583 76.3032C90.131 76.3032 88.0307 74.7775 87.9553 71.7268C87.9553 71.6514 88.0307 71.5759 88.1054 71.5759H90.0069C90.081 71.5759 90.1564 71.6514 90.1564 71.7268C90.2064 73.8024 91.4572 74.7274 93.7831 74.7274C95.6839 74.7274 96.9352 73.9279 96.9352 72.503C96.9352 70.9961 95.2071 70.7044 93.293 70.3814C90.9175 69.9804 88.2556 69.5312 88.2556 66.6505C88.2556 64.173 90.2818 62.8729 93.3326 62.8729C96.3599 62.8729 98.5604 64.1477 98.7106 66.874C98.7106 66.9495 98.6351 67.0249 98.5604 67.0249H96.7344C96.6603 67.0249 96.5849 66.9495 96.5849 66.874C96.434 65.1982 95.184 64.424 93.3079 64.424C91.5573 64.424 90.4313 65.0747 90.4313 66.4996C90.4313 67.8921 92.0732 68.1536 93.9287 68.4491C96.3393 68.833 99.1103 69.2743 99.1103 72.3274C99.1103 74.8529 96.7844 76.3032 93.6583 76.3032ZM100.26 71.7268C100.336 74.7775 102.436 76.3032 105.963 76.3032C109.089 76.3032 111.415 74.8529 111.415 72.3274C111.415 69.2743 108.644 68.833 106.234 68.4491C104.378 68.1536 102.736 67.8921 102.736 66.4996C102.736 65.0747 103.862 64.424 105.613 64.424C107.489 64.424 108.739 65.1982 108.89 66.874C108.89 66.9495 108.965 67.0249 109.039 67.0249H110.866C110.94 67.0249 111.016 66.9495 111.016 66.874C110.866 64.1477 108.665 62.8729 105.638 62.8729C102.587 62.8729 100.561 64.173 100.561 66.6505C100.561 69.5312 103.223 69.9804 105.598 70.3814C107.512 70.7044 109.24 70.9961 109.24 72.503C109.24 73.9279 107.989 74.7274 106.088 74.7274C103.762 74.7274 102.511 73.8024 102.461 71.7268C102.461 71.6514 102.386 71.5759 102.312 71.5759H100.41C100.336 71.5759 100.26 71.6514 100.26 71.7268ZM118.619 64.4991C116.493 64.4991 115.242 65.874 114.916 68.2994H122.145C122.071 66.2484 120.895 64.4991 118.619 64.4991ZM124.246 71.551C124.321 71.551 124.396 71.6264 124.371 71.7018C123.995 74.3781 122.071 76.3283 118.718 76.3283C114.716 76.3283 112.565 73.5532 112.565 69.6262C112.565 65.5997 114.867 62.848 118.593 62.848C122.345 62.848 124.546 65.4489 124.596 69.7516C124.596 69.8264 124.521 69.8998 124.446 69.8998H114.842C114.916 73.0033 116.217 74.6544 118.743 74.6544C120.644 74.6544 121.82 73.6286 122.17 71.7018C122.195 71.6264 122.27 71.551 122.345 71.551H124.246ZM132.175 75.9286C132.249 75.9032 132.324 75.8031 132.324 75.7297V74.3782C132.324 74.3028 132.249 74.2527 132.175 74.2774C131.824 74.3782 131.299 74.4536 130.774 74.4536C129.698 74.4536 129.173 73.9784 129.173 72.428L129.148 64.899H132.199C132.274 64.899 132.35 64.8236 132.35 64.7481V63.2979C132.35 63.2225 132.274 63.1477 132.199 63.1477H129.148L129.173 60.0716C129.173 59.9962 129.097 59.9208 129.023 59.9208H127.047C126.972 59.9208 126.897 59.9962 126.897 60.0716L126.922 63.1477H125.396C125.32 63.1477 125.246 63.2225 125.246 63.2979V64.7481C125.246 64.8236 125.32 64.899 125.396 64.899H126.922L126.897 72.4781C126.897 75.2779 128.498 76.255 130.373 76.255C130.999 76.255 131.65 76.0794 132.175 75.9286ZM141.703 71.0007L141.753 75.8781C141.753 75.9535 141.678 76.029 141.604 76.029H139.552C139.478 76.029 139.402 75.9535 139.402 75.8781L139.453 71.0007L139.427 63.2981C139.427 63.2227 139.502 63.1473 139.577 63.1473H141.503C141.578 63.1473 141.653 63.2227 141.653 63.2981L141.604 65.3237C142.404 63.9736 143.655 62.8483 145.581 62.8483C147.406 62.8483 148.732 63.6979 149.282 65.5493C150.207 63.798 151.533 62.8483 153.335 62.8483C155.86 62.8483 157.361 64.4488 157.361 67.95V71.0007L157.411 75.8781C157.411 75.9535 157.336 76.029 157.261 76.029H155.234C155.16 76.029 155.085 75.9535 155.085 75.8781L155.135 71.0007V68.0501C155.135 65.6481 154.16 64.673 152.659 64.673C151.282 64.673 150.158 65.899 149.608 68.0254V71.0007L149.633 75.8781C149.633 75.9535 149.557 76.029 149.482 76.029H147.481C147.406 76.029 147.331 75.9535 147.331 75.8781L147.356 71.0007V68.0501C147.356 65.6481 146.406 64.673 144.905 64.673C143.404 64.673 142.203 66.0999 141.703 68.5753V71.0007ZM168.315 69.7012C168.29 72.9528 166.939 74.604 164.713 74.604C162.287 74.604 161.137 72.5283 161.137 69.4502C161.137 66.5997 162.236 64.6229 164.613 64.5728H164.988C167.114 64.6983 168.34 66.5497 168.315 69.7012ZM168.215 75.8787C168.215 75.9535 168.29 76.0289 168.364 76.0289H170.34C170.416 76.0289 170.49 75.9535 170.49 75.8787L170.441 69.4756L170.49 63.2981C170.49 63.2227 170.416 63.1472 170.34 63.1472H168.34C168.265 63.1472 168.189 63.2227 168.189 63.2981L168.24 65.1228C167.389 63.6725 166.013 62.8983 164.187 62.8983C160.786 62.8983 158.809 65.899 158.809 69.6258C158.809 73.3526 160.661 76.2798 164.137 76.2798C165.988 76.2798 167.389 75.4282 168.265 73.9786L168.215 75.8787ZM172.54 76.029C172.466 76.029 172.39 75.9536 172.39 75.8782L172.44 70.1512L172.415 63.2982C172.415 63.2228 172.49 63.1474 172.565 63.1474H174.491C174.566 63.1474 174.641 63.2228 174.641 63.2982L174.591 65.3238C175.367 64.0243 176.817 62.8484 178.869 62.8484C181.52 62.8484 183.195 64.5977 183.195 67.95V70.5256L183.245 75.8782C183.245 75.9536 183.17 76.029 183.096 76.029H181.069C180.995 76.029 180.919 75.9536 180.919 75.8782L180.97 70.5256V68.0502C180.97 65.7236 179.869 64.6731 178.243 64.6731C176.567 64.6731 175.191 66.0246 174.691 68.5754V70.5256L174.741 75.8782C174.741 75.9536 174.666 76.029 174.591 76.029H172.54ZM194.15 69.7012C194.126 72.9528 192.775 74.604 190.548 74.604C188.122 74.604 186.972 72.5283 186.972 69.4502C186.972 66.5997 188.072 64.6229 190.448 64.5728H190.823C192.95 64.6983 194.176 66.5497 194.15 69.7012ZM194.05 75.8787C194.05 75.9535 194.126 76.0289 194.2 76.0289H196.176C196.251 76.0289 196.326 75.9535 196.326 75.8787L196.277 69.4756L196.326 63.2981C196.326 63.2227 196.251 63.1472 196.176 63.1472H194.176C194.1 63.1472 194.025 63.2227 194.025 63.2981L194.076 65.1228C193.225 63.6725 191.849 62.8983 190.023 62.8983C186.622 62.8983 184.645 65.899 184.645 69.6258C184.645 73.3526 186.496 76.2798 189.973 76.2798C191.824 76.2798 193.225 75.4282 194.1 73.9786L194.05 75.8787ZM203.853 74.3278C205.954 74.3278 207.33 72.8275 207.355 69.6513C207.381 66.5498 206.154 64.6978 204.028 64.5723H203.654C201.326 64.6223 200.177 66.5498 200.177 69.4751C200.177 72.5765 201.402 74.3532 203.853 74.3278ZM203.753 80.9318C200.777 80.9819 198.4 79.7058 198.2 76.8786C198.2 76.8052 198.276 76.7298 198.35 76.7298H200.301C200.377 76.7298 200.452 76.8052 200.476 76.8786C200.677 78.5298 201.977 79.2807 203.803 79.2807C205.879 79.2807 207.355 78.0293 207.355 75.1294V73.7024C206.504 75.1294 205.154 75.9536 203.353 75.9536C199.751 75.9536 197.85 73.2273 197.85 69.5505C197.85 65.8991 199.801 62.9485 203.278 62.9485C205.079 62.9485 206.454 63.698 207.305 65.1229L207.23 63.2982C207.23 63.2228 207.305 63.1474 207.381 63.1474H209.355C209.431 63.1474 209.506 63.2228 209.506 63.2982L209.456 68.2991L209.481 75.1541C209.481 78.8562 207.405 80.9318 203.753 80.9318ZM213.382 68.2994C213.708 65.874 214.959 64.4991 217.085 64.4991C219.361 64.4991 220.537 66.2484 220.611 68.2994H213.382ZM222.837 71.7018C222.863 71.6264 222.787 71.551 222.712 71.551H220.812C220.736 71.551 220.661 71.6264 220.636 71.7018C220.287 73.6286 219.111 74.6544 217.21 74.6544C214.684 74.6544 213.382 73.0033 213.308 69.8998H222.913C222.987 69.8998 223.062 69.8264 223.062 69.7516C223.012 65.4489 220.812 62.848 217.06 62.848C213.333 62.848 211.032 65.5997 211.032 69.6262C211.032 73.5532 213.183 76.3283 217.184 76.3283C220.537 76.3283 222.462 74.3781 222.837 71.7018ZM226.888 71.0007L226.938 75.8781C226.938 75.9535 226.862 76.029 226.788 76.029H224.737C224.663 76.029 224.587 75.9535 224.587 75.8781L224.637 71.0007L224.612 63.2981C224.612 63.2227 224.687 63.1473 224.762 63.1473H226.688C226.763 63.1473 226.838 63.2227 226.838 63.2981L226.788 65.3237C227.588 63.9736 228.839 62.8483 230.765 62.8483C232.591 62.8483 233.916 63.6979 234.467 65.5493C235.392 63.798 236.717 62.8483 238.519 62.8483C241.045 62.8483 242.546 64.4488 242.546 67.95V71.0007L242.595 75.8781C242.595 75.9535 242.521 76.029 242.446 76.029H240.42C240.345 76.029 240.269 75.9535 240.269 75.8781L240.319 71.0007V68.0501C240.319 65.6481 239.344 64.673 237.843 64.673C236.467 64.673 235.342 65.899 234.792 68.0254V71.0007L234.816 75.8781C234.816 75.9535 234.742 76.029 234.666 76.029H232.666C232.591 76.029 232.515 75.9535 232.515 75.8781L232.541 71.0007V68.0501C232.541 65.6481 231.591 64.673 230.089 64.673C228.589 64.673 227.388 66.0999 226.888 68.5753V71.0007ZM246.345 68.2994C246.67 65.874 247.922 64.4991 250.048 64.4991C252.323 64.4991 253.499 66.2484 253.573 68.2994H246.345ZM255.8 71.7018C255.825 71.6264 255.75 71.551 255.674 71.551H253.774C253.699 71.551 253.623 71.6264 253.599 71.7018C253.249 73.6286 252.073 74.6544 250.172 74.6544C247.646 74.6544 246.345 73.0033 246.271 69.8998H255.875C255.949 69.8998 256.025 69.8264 256.025 69.7516C255.975 65.4489 253.774 62.848 250.022 62.848C246.295 62.848 243.994 65.5997 243.994 69.6262C243.994 73.5532 246.145 76.3283 250.147 76.3283C253.499 76.3283 255.424 74.3781 255.8 71.7018ZM257.7 76.029C257.626 76.029 257.551 75.9536 257.551 75.8782L257.601 70.1512L257.576 63.2982C257.576 63.2228 257.65 63.1474 257.726 63.1474H259.652C259.727 63.1474 259.801 63.2228 259.801 63.2982L259.752 65.3238C260.527 64.0243 261.978 62.8484 264.029 62.8484C266.68 62.8484 268.356 64.5977 268.356 67.95V70.5256L268.406 75.8782C268.406 75.9536 268.33 76.029 268.256 76.029H266.23C266.155 76.029 266.08 75.9536 266.08 75.8782L266.13 70.5256V68.0502C266.13 65.7236 265.029 64.6731 263.403 64.6731C261.727 64.6731 260.351 66.0246 259.851 68.5754V70.5256L259.901 75.8782C259.901 75.9536 259.826 76.029 259.752 76.029H257.7ZM276.41 75.9286C276.484 75.9032 276.559 75.8031 276.559 75.7297V74.3782C276.559 74.3028 276.484 74.2527 276.41 74.2774C276.059 74.3782 275.534 74.4536 275.009 74.4536C273.933 74.4536 273.408 73.9784 273.408 72.428L273.383 64.899H276.434C276.509 64.899 276.585 64.8236 276.585 64.7481V63.2979C276.585 63.2225 276.509 63.1477 276.434 63.1477H273.383L273.408 60.0716C273.408 59.9962 273.332 59.9208 273.258 59.9208H271.282C271.207 59.9208 271.132 59.9962 271.132 60.0716L271.157 63.1477H269.631C269.556 63.1477 269.481 63.2225 269.481 63.2979V64.7481C269.481 64.8236 269.556 64.899 269.631 64.899H271.157L271.132 72.4781C271.132 75.2779 272.733 76.255 274.608 76.255C275.234 76.255 275.885 76.0794 276.41 75.9286Z" fill="#1D1D1D"/>
</svg>
