<svg xmlns:xlink="http://www.w3.org/1999/xlink" xmlns="http://www.w3.org/2000/svg" width="241" height="87" viewBox="0 0 241 87" fill="none">
<path d="M157.276 56.5062C157.912 57.1421 158.23 58.0657 158.23 59.277V64.319H157.14V59.3981C157.14 58.4594 156.912 57.7478 156.458 57.2481C156.004 56.7485 155.398 56.5062 154.611 56.5062C153.824 56.5062 153.157 56.7787 152.673 57.3087C152.188 57.8386 151.946 58.626 151.946 59.6404V64.3038H150.856V59.383C150.856 58.4443 150.629 57.7326 150.175 57.233C149.72 56.7333 149.1 56.4911 148.312 56.4911C147.525 56.4911 146.859 56.7636 146.374 57.2935C145.89 57.8235 145.648 58.6108 145.648 59.6253V64.2887H144.542V55.6886H145.648V57.1724C145.92 56.6425 146.314 56.2337 146.813 55.946C147.313 55.6735 147.873 55.522 148.494 55.522C149.115 55.522 149.887 55.7037 150.462 56.052C151.023 56.4154 151.431 56.9302 151.689 57.6266C151.916 56.9453 152.31 56.4154 152.885 56.052C153.445 55.6886 154.081 55.5069 154.793 55.5069C155.504 55.5069 156.625 55.8249 157.261 56.4608L157.276 56.5062Z" fill="#1F3955"/>
<path d="M168.026 60.4429H160.879C160.91 61.0939 161.061 61.6542 161.349 62.1084C161.637 62.5778 162 62.926 162.469 63.1531C162.939 63.3954 163.438 63.5014 163.983 63.5014C164.528 63.5014 165.301 63.3348 165.785 62.9866C166.27 62.6383 166.603 62.169 166.754 61.5785H167.92C167.708 62.4263 167.254 63.1077 166.572 63.6376C165.891 64.1676 165.013 64.4401 163.983 64.4401C162.954 64.4401 162.454 64.2584 161.803 63.895C161.167 63.5316 160.667 63.0168 160.304 62.3506C159.941 61.6844 159.759 60.8971 159.759 60.0038C159.759 59.1105 159.941 58.3231 160.289 57.6569C160.652 56.9907 161.152 56.4759 161.788 56.1125C162.424 55.7492 163.166 55.5826 163.983 55.5826C164.801 55.5826 165.513 55.7643 166.133 56.1125C166.754 56.4759 167.224 56.9453 167.557 57.5509C167.89 58.1566 168.056 58.8228 168.056 59.5647C168.056 60.3066 168.056 60.2309 168.026 60.4277V60.4429ZM166.557 57.8992C166.285 57.445 165.921 57.1119 165.467 56.8696C164.998 56.6425 164.498 56.5214 163.953 56.5214C163.135 56.5214 162.439 56.7788 161.864 57.3087C161.288 57.8386 160.97 58.5805 160.91 59.5344H166.966C166.966 58.8985 166.845 58.3534 166.572 57.8992H166.557Z" fill="#1F3955"/>
<path d="M177.474 60.4429H170.327C170.358 61.0939 170.509 61.6542 170.797 62.1084C171.085 62.5778 171.448 62.926 171.917 63.1531C172.387 63.3954 172.886 63.5014 173.431 63.5014C173.976 63.5014 174.749 63.3348 175.233 62.9866C175.718 62.6383 176.051 62.169 176.202 61.5785H177.368C177.156 62.4263 176.702 63.1077 176.02 63.6376C175.339 64.1676 174.461 64.4401 173.431 64.4401C172.402 64.4401 171.902 64.2584 171.251 63.895C170.615 63.5316 170.115 63.0168 169.752 62.3506C169.389 61.6844 169.207 60.8971 169.207 60.0038C169.207 59.1105 169.389 58.3231 169.737 57.6569C170.1 56.9907 170.6 56.4759 171.236 56.1125C171.872 55.7492 172.614 55.5826 173.431 55.5826C174.249 55.5826 174.961 55.7643 175.581 56.1125C176.202 56.4759 176.672 56.9453 177.005 57.5509C177.338 58.1566 177.504 58.8228 177.504 59.5647C177.504 60.3066 177.504 60.2309 177.474 60.4277V60.4429ZM176.005 57.8992C175.733 57.445 175.369 57.1119 174.915 56.8696C174.446 56.6425 173.946 56.5214 173.401 56.5214C172.583 56.5214 171.887 56.7788 171.312 57.3087C170.736 57.8386 170.418 58.5805 170.358 59.5344H176.414C176.414 58.8985 176.293 58.3534 176.02 57.8992H176.005Z" fill="#1F3955"/>
<path d="M181.35 56.0066C181.85 55.7189 182.455 55.5675 183.182 55.5675V56.7182H182.879C182.077 56.7182 181.441 56.9302 180.956 57.3693C180.472 57.7932 180.23 58.52 180.23 59.5344V64.3341H179.124V55.734H180.23V57.2633C180.472 56.7333 180.835 56.3094 181.335 56.0217L181.35 56.0066Z" fill="#1F3955"/>
<path d="M196.279 55.7189L193.584 64.319H192.479L190.102 57.0967L187.724 64.319H186.604L183.909 55.7189H185.029L187.179 63.1985L189.587 55.7189H190.692L193.069 63.2137L195.204 55.7189H196.294H196.279Z" fill="#1F3955"/>
<path d="M197.263 57.6721C197.611 57.0059 198.111 56.4911 198.732 56.1277C199.353 55.7643 200.064 55.5826 200.852 55.5826C201.639 55.5826 202.381 55.7643 202.971 56.1428C203.562 56.5214 203.986 57.0059 204.258 57.5964V55.7037H205.364V64.3038H204.258V62.3961C203.986 62.9866 203.547 63.4711 202.956 63.8496C202.366 64.2281 201.654 64.425 200.836 64.425C200.019 64.425 199.353 64.2433 198.732 63.8799C198.111 63.5165 197.611 62.9866 197.263 62.3204C196.915 61.6542 196.733 60.8668 196.733 59.9886C196.733 59.1105 196.915 58.3383 197.263 57.6569V57.6721ZM203.834 58.1869C203.547 57.6569 203.168 57.2633 202.668 56.9756C202.184 56.6879 201.639 56.5516 201.048 56.5516C200.458 56.5516 199.898 56.6879 199.413 56.9604C198.929 57.233 198.55 57.6266 198.278 58.1566C198.005 58.6714 197.854 59.2922 197.854 60.0038C197.854 60.7154 197.99 61.3211 198.278 61.851C198.55 62.3809 198.944 62.7897 199.413 63.0623C199.898 63.3348 200.443 63.4862 201.048 63.4862C201.654 63.4862 202.169 63.3499 202.668 63.0623C203.153 62.7746 203.547 62.3809 203.834 61.851C204.122 61.3211 204.258 60.7154 204.258 60.0189C204.258 59.3224 204.122 58.7168 203.834 58.1869Z" fill="#1F3955"/>
<path d="M207.514 57.6721C207.862 57.0059 208.361 56.4911 208.982 56.1277C209.603 55.7643 210.315 55.5826 211.102 55.5826C211.889 55.5826 212.631 55.7643 213.222 56.1428C213.812 56.5214 214.236 57.0059 214.509 57.5964V55.7037H215.614V64.3038H214.509V62.3961C214.236 62.9866 213.797 63.4711 213.207 63.8496C212.616 64.2281 211.904 64.425 211.087 64.425C210.269 64.425 209.603 64.2433 208.982 63.8799C208.361 63.5165 207.862 62.9866 207.514 62.3204C207.165 61.6542 206.984 60.8668 206.984 59.9886C206.984 59.1105 207.165 58.3383 207.514 57.6569V57.6721ZM214.085 58.1869C213.797 57.6569 213.419 57.2633 212.919 56.9756C212.434 56.6879 211.889 56.5516 211.299 56.5516C210.708 56.5516 210.148 56.6879 209.664 56.9604C209.179 57.233 208.801 57.6266 208.528 58.1566C208.255 58.6714 208.104 59.2922 208.104 60.0038C208.104 60.7154 208.24 61.3211 208.528 61.851C208.801 62.3809 209.194 62.7897 209.664 63.0623C210.148 63.3348 210.693 63.4862 211.299 63.4862C211.904 63.4862 212.419 63.3499 212.919 63.0623C213.403 62.7746 213.797 62.3809 214.085 61.851C214.372 61.3211 214.509 60.7154 214.509 60.0189C214.509 59.3224 214.372 58.7168 214.085 58.1869Z" fill="#1F3955"/>
<path d="M219.642 56.0066C220.141 55.7189 220.747 55.5675 221.474 55.5675V56.7182H221.171C220.368 56.7182 219.732 56.9302 219.248 57.3693C218.763 57.7932 218.521 58.52 218.521 59.5344V64.3341H217.416V55.734H218.521V57.2633C218.763 56.7333 219.127 56.3094 219.626 56.0217L219.642 56.0066Z" fill="#1F3955"/>
<path d="M222.428 57.6721C222.791 57.0059 223.276 56.4911 223.896 56.1277C224.517 55.7643 225.229 55.5826 226.016 55.5826C226.803 55.5826 227.454 55.7643 228.06 56.1277C228.666 56.4911 229.12 56.9756 229.393 57.5661V52.6453H230.498V64.3038H229.393V62.3809C229.135 62.9866 228.696 63.4711 228.106 63.8496C227.5 64.2281 226.803 64.425 226.001 64.425C225.198 64.425 224.502 64.2433 223.881 63.8799C223.26 63.5165 222.761 62.9866 222.413 62.3204C222.064 61.6542 221.883 60.8668 221.883 59.9886C221.883 59.1105 222.064 58.3383 222.413 57.6569L222.428 57.6721ZM228.984 58.1869C228.696 57.6569 228.318 57.2633 227.818 56.9756C227.333 56.6879 226.788 56.5516 226.198 56.5516C225.607 56.5516 225.047 56.6879 224.563 56.9604C224.078 57.233 223.699 57.6266 223.427 58.1566C223.154 58.6714 223.003 59.2922 223.003 60.0038C223.003 60.7154 223.139 61.3211 223.427 61.851C223.699 62.3809 224.093 62.7897 224.563 63.0623C225.047 63.3348 225.592 63.4862 226.198 63.4862C226.803 63.4862 227.318 63.3499 227.818 63.0623C228.302 62.7746 228.696 62.3809 228.984 61.851C229.271 61.3211 229.408 60.7154 229.408 60.0189C229.408 59.3224 229.271 58.7168 228.984 58.1869Z" fill="#1F3955"/>
<path d="M240.37 60.4429H233.223C233.253 61.0939 233.405 61.6542 233.692 62.1084C233.98 62.5778 234.343 62.926 234.813 63.1531C235.282 63.3954 235.782 63.5014 236.327 63.5014C236.872 63.5014 237.644 63.3348 238.129 62.9866C238.613 62.6383 238.946 62.169 239.098 61.5785H240.264C240.052 62.4263 239.597 63.1077 238.916 63.6376C238.235 64.1676 237.356 64.4401 236.327 64.4401C235.297 64.4401 234.798 64.2584 234.147 63.895C233.511 63.5316 233.011 63.0168 232.648 62.3506C232.284 61.6844 232.103 60.8971 232.103 60.0038C232.103 59.1105 232.284 58.3231 232.632 57.6569C232.996 56.9907 233.496 56.4759 234.131 56.1125C234.767 55.7492 235.509 55.5826 236.327 55.5826C237.144 55.5826 237.856 55.7643 238.477 56.1125C239.098 56.4759 239.567 56.9453 239.9 57.5509C240.233 58.1566 240.4 58.8228 240.4 59.5647C240.4 60.3066 240.4 60.2309 240.37 60.4277V60.4429ZM238.901 57.8992C238.628 57.445 238.265 57.1119 237.811 56.8696C237.341 56.6425 236.842 56.5214 236.297 56.5214C235.479 56.5214 234.782 56.7788 234.207 57.3087C233.632 57.8386 233.314 58.5805 233.253 59.5344H239.31C239.31 58.8985 239.189 58.3534 238.916 57.8992H238.901Z" fill="#1F3955"/>
<path d="M146.965 41.3501C147.555 40.9715 148.267 40.7899 149.069 40.7899C149.872 40.7899 150.568 40.9715 151.174 41.3349C151.795 41.6983 152.279 42.2131 152.628 42.8793C152.976 43.5455 153.157 44.3177 153.157 45.211C153.157 46.1043 152.976 46.8765 152.628 47.5427C152.279 48.2089 151.78 48.7389 151.159 49.1023C150.538 49.4656 149.826 49.6473 149.054 49.6473C148.282 49.6473 147.525 49.4657 146.935 49.0871C146.344 48.7086 145.905 48.2241 145.632 47.6336V49.5262H144.542V37.8676H145.632V42.8339C145.92 42.2283 146.359 41.7437 146.95 41.3652L146.965 41.3501ZM151.643 43.3487C151.371 42.8339 150.977 42.4251 150.508 42.1526C150.023 41.88 149.478 41.7437 148.873 41.7437C148.267 41.7437 147.752 41.88 147.252 42.1677C146.768 42.4554 146.374 42.849 146.087 43.379C145.799 43.9089 145.663 44.5145 145.663 45.211C145.663 45.9075 145.799 46.5132 146.087 47.0431C146.374 47.573 146.753 47.9667 147.252 48.2544C147.737 48.5421 148.282 48.6783 148.873 48.6783C149.463 48.6783 150.023 48.5421 150.508 48.2544C150.992 47.9818 151.371 47.573 151.643 47.0431C151.916 46.5132 152.067 45.8924 152.067 45.1959C152.067 44.4994 151.931 43.8635 151.643 43.3487Z" fill="#1F3955"/>
<path d="M154.838 42.8793C155.186 42.2131 155.686 41.6983 156.307 41.3349C156.927 40.9715 157.639 40.7899 158.426 40.7899C159.214 40.7899 159.956 40.9715 160.546 41.3501C161.137 41.7286 161.561 42.2131 161.833 42.8036V40.911H162.938V49.5111H161.833V47.6033C161.561 48.1938 161.122 48.6783 160.531 49.0568C159.941 49.4354 159.229 49.6322 158.411 49.6322C157.594 49.6322 156.927 49.4505 156.307 49.0871C155.686 48.7237 155.186 48.1938 154.838 47.5276C154.49 46.8614 154.308 46.0741 154.308 45.1959C154.308 44.3177 154.49 43.5455 154.838 42.8642V42.8793ZM161.409 43.3941C161.122 42.8642 160.743 42.4705 160.243 42.1828C159.759 41.8951 159.214 41.7589 158.623 41.7589C158.033 41.7589 157.473 41.8951 156.988 42.1677C156.504 42.4402 156.125 42.8339 155.852 43.3638C155.58 43.8786 155.429 44.4994 155.429 45.211C155.429 45.9226 155.565 46.5283 155.852 47.0582C156.125 47.5882 156.519 47.997 156.988 48.2695C157.473 48.542 158.018 48.6935 158.623 48.6935C159.229 48.6935 159.744 48.5572 160.243 48.2695C160.728 47.9818 161.122 47.5882 161.409 47.0582C161.697 46.5283 161.833 45.9227 161.833 45.2262C161.833 44.5297 161.697 43.924 161.409 43.3941Z" fill="#1F3955"/>
<path d="M171.342 41.7134C171.993 42.3494 172.326 43.273 172.326 44.4842V49.5262H171.236V44.6054C171.236 43.6666 171.009 42.955 170.539 42.4554C170.07 41.9557 169.434 41.7134 168.631 41.7134C167.829 41.7134 167.133 41.9708 166.648 42.5008C166.148 43.0307 165.906 43.8029 165.906 44.8173V49.5111H164.801V40.911H165.906V42.3797C166.179 41.8497 166.572 41.456 167.087 41.1684C167.602 40.8958 168.177 40.7444 168.843 40.7444C169.873 40.7444 170.721 41.0624 171.372 41.6983L171.342 41.7134Z" fill="#1F3955"/>
<path d="M178.821 49.5262L175.278 45.6653V49.5262H174.173V37.8676H175.278V44.7719L178.746 40.9261H180.29L176.202 45.211L180.32 49.5262H178.821Z" fill="#1F3955"/>
<path d="M188.179 48.4512L191.086 40.911H192.252L188.799 49.5111H187.558L184.106 40.911H185.287L188.194 48.4512H188.179Z" fill="#1F3955"/>
<path d="M193.039 42.8793C193.387 42.2131 193.887 41.6983 194.507 41.3349C195.128 40.9715 195.84 40.7899 196.627 40.7899C197.414 40.7899 198.156 40.9715 198.747 41.3501C199.337 41.7286 199.761 42.2131 200.034 42.8036V40.911H201.139V49.5111H200.034V47.6033C199.761 48.1938 199.322 48.6783 198.732 49.0568C198.141 49.4354 197.43 49.6322 196.612 49.6322C195.794 49.6322 195.128 49.4505 194.507 49.0871C193.887 48.7237 193.387 48.1938 193.039 47.5276C192.69 46.8614 192.509 46.0741 192.509 45.1959C192.509 44.3177 192.69 43.5455 193.039 42.8642V42.8793ZM199.595 43.3941C199.307 42.8642 198.929 42.4705 198.429 42.1828C197.944 41.8951 197.399 41.7589 196.809 41.7589C196.218 41.7589 195.658 41.8951 195.174 42.1677C194.689 42.4402 194.311 42.8339 194.038 43.3638C193.766 43.8786 193.614 44.4994 193.614 45.211C193.614 45.9226 193.75 46.5283 194.038 47.0582C194.311 47.5882 194.704 47.997 195.174 48.2695C195.658 48.542 196.203 48.6935 196.809 48.6935C197.414 48.6935 197.929 48.5572 198.429 48.2695C198.913 47.9818 199.307 47.5882 199.595 47.0582C199.882 46.5283 200.019 45.9227 200.019 45.2262C200.019 44.5297 199.882 43.924 199.595 43.3941Z" fill="#1F3955"/>
<path d="M209.558 41.7134C210.209 42.3494 210.542 43.273 210.542 44.4842V49.5262H209.452V44.6054C209.452 43.6666 209.225 42.955 208.755 42.4554C208.286 41.9557 207.65 41.7134 206.848 41.7134C206.045 41.7134 205.349 41.9708 204.864 42.5008C204.364 43.0307 204.122 43.8029 204.122 44.8173V49.5111H203.017V40.911H204.122V42.3797C204.395 41.8497 204.788 41.456 205.303 41.1684C205.818 40.8958 206.393 40.7444 207.06 40.7444C208.089 40.7444 208.937 41.0624 209.588 41.6983L209.558 41.7134Z" fill="#1F3955"/>
<path d="M114.699 55.84V64.4855H135.851V55.84H114.699Z" fill="#96BFEB"/>
<path d="M55.6948 22.1361H47.0493V43.7575H55.6948V22.1361Z" fill="#FF6253"/>
<path d="M114.684 22.1816C103.01 22.1816 93.5322 31.6447 93.5322 43.3336C93.5322 55.0224 102.995 64.4855 114.684 64.4855V55.84C111.338 55.84 108.204 54.5379 105.842 52.1759C103.48 49.8139 102.178 46.6646 102.178 43.3336C102.178 40.0025 103.48 36.8532 105.842 34.4912C108.204 32.1292 111.353 30.8271 114.684 30.8271C118.015 30.8271 121.165 32.1292 123.527 34.4912C125.889 36.8532 127.191 40.0025 127.191 43.3336V65.4697C127.191 68.8159 125.889 71.95 123.527 74.312C121.165 76.674 118.015 77.9762 114.684 77.9762V86.6217C126.358 86.6217 135.806 77.1737 135.836 65.5151V43.3336C135.836 31.6598 126.373 22.1816 114.684 22.1816Z" fill="#1F3955"/>
<path d="M89.3381 43.273C89.3381 31.5993 79.875 22.121 68.1862 22.121C56.4973 22.121 47.0342 31.5841 47.0342 43.273V64.425H55.6797V43.273C55.6797 39.9268 56.9818 36.7926 59.3438 34.4306C61.7058 32.0686 64.8551 30.7665 68.1862 30.7665C71.5172 30.7665 74.6665 32.0686 77.0285 34.4306C79.3905 36.7926 80.6926 39.942 80.6926 43.273V64.425H89.3381V43.273Z" fill="#1F3955"/>
<path d="M21.567 22.1361V30.7817C24.9132 30.7817 28.0474 32.0838 30.4094 34.4458C32.7714 36.8078 34.0735 39.9571 34.0735 43.2881C34.0735 46.6191 32.7714 49.7685 30.4094 52.1305C28.0474 54.4925 24.898 55.7946 21.567 55.7946C18.236 55.7946 15.0867 54.4925 12.7247 52.1305C10.3627 49.7685 9.06055 46.6191 9.06055 43.2881V21.152C9.06055 17.8058 10.3627 14.6716 12.7247 12.3096C15.0867 9.94763 18.236 8.64551 21.567 8.64551V0C9.89331 0 0.445321 9.44798 0.415039 21.1066V43.2881C0.415039 54.9618 9.87817 64.4401 21.567 64.4401C33.2559 64.4401 42.719 54.977 42.719 43.2881C42.719 31.5993 33.2559 22.1361 21.567 22.1361Z" fill="#1F3955"/>
<path d="M21.5518 30.7665V22.121H0.399778V30.7665H21.5518Z" fill="#00A28B"/>
</svg>