<svg width="360" height="72" xmlns="http://www.w3.org/2000/svg"><path d="M350.63 45.09c0 11.24-6.89 19.45-17.12 19.45s-17.13-8.21-17.13-19.45c0-11.24 6.89-19.46 17.13-19.46 10.24 0 17.12 8.21 17.12 19.46zm-342.12 0c0-10.74 6.08-19.46 16.62-19.46 7.49 0 12.76 4.26 14.28 11.25h8.51C45.8 25.33 37.38 18.24 25.13 18.24 9.93 18.24 0 29.24 0 45.09c0 15.85 9.93 26.85 25.13 26.85 12.25 0 20.67-7.1 22.79-18.65h-8.51c-1.52 7-6.79 11.25-14.28 11.25-10.54 0-16.62-8.71-16.62-19.45zm95.62-25.84h-7.2l-1.11 8.11c-3.55-5.58-9.53-9.12-17.73-9.12-14.29 0-24.83 11-24.83 26.85 0 15.85 10.56 26.85 24.87 26.85 8.2 0 14.18-3.55 17.73-9.12l1.11 8.1h7.16zM61.79 45.09c0-11.35 7-19.46 17-19.46 10.33 0 17.12 9.22 17.12 19.46s-6.78 19.45-17.09 19.45c-10 0-17-8.1-17-19.45zm52.45-25.84v51.67h8.31V43.77c0-9 3.74-16.41 14.69-16.41h3.65v-8.11h-2.76c-8.41 0-12.67 3.14-15.6 8.11l-1.12-8.11zM184.13 0v27.56c-3.55-5.68-9.53-9.32-17.73-9.32-14.29 0-24.83 11-24.83 26.85 0 15.85 10.56 26.85 24.82 26.85 8.2 0 14.18-3.55 17.73-9.12l1.11 8.1h7.2V0zm-34.06 45.09c0-11.35 7-19.46 17-19.46 10.33 0 17.12 9.22 17.12 19.46s-6.76 19.45-17.06 19.45c-10 0-17-8.1-17-19.45zm94.66-7.81c0-12.26-7.5-19-20.77-19-12.47 0-20.67 6.07-21.89 16.31h8.31c1-5.17 5.47-9 13.17-9 8.11 0 12.87 4.26 12.87 11.75v3.09h-15.2c-13.37 0-20.77 5.77-20.77 15.8 0 10.03 7.6 15.71 18.64 15.71 8.31 0 13.68-3.25 17.74-9.12l.71 8.1h7.19zm-8.31 10v2.53c0 9-6.28 15-16.11 15-7.29 0-11.55-3.24-11.55-9 0-5.48 4-8.51 12.77-8.51zm17.71 23.64h8.31V45.09c0-11.86 5.78-19.26 15.71-19.26 8.81 0 13.88 5.88 13.88 16.62v28.47h8.3v-29c0-16.31-8.41-23.7-20.77-23.7-7.6 0-13.27 2.73-17.22 8.41l-1-7.4h-7.21zm53.76-25.83c0 15.8 10.54 26.85 25.64 26.85 15.1 0 25.6-11.05 25.6-26.85s-10.54-26.85-25.63-26.85-25.64 11-25.64 26.85z" fill="#221e3c"/></svg>