<?xml version="1.0" encoding="UTF-8" standalone="no"?>
<!-- Created with Inkscape (http://www.inkscape.org/) -->

<svg
   xmlns:dc="http://purl.org/dc/elements/1.1/"
   xmlns:cc="http://creativecommons.org/ns#"
   xmlns:rdf="http://www.w3.org/1999/02/22-rdf-syntax-ns#"
   xmlns:svg="http://www.w3.org/2000/svg"
   xmlns="http://www.w3.org/2000/svg"
   xmlns:xlink="http://www.w3.org/1999/xlink"
   xmlns:sodipodi="http://sodipodi.sourceforge.net/DTD/sodipodi-0.dtd"
   xmlns:inkscape="http://www.inkscape.org/namespaces/inkscape"
   id="svg2"
   version="1.1"
   inkscape:version="0.47 r22583"
   width="190.97101"
   height="35.504562"
   xml:space="preserve"
   sodipodi:docname="Grant Thornton International logo.svg"><metadata
     id="metadata8"><rdf:RDF><cc:Work
         rdf:about=""><dc:format>image/svg+xml</dc:format><dc:type
           rdf:resource="http://purl.org/dc/dcmitype/StillImage" /><dc:title></dc:title></cc:Work></rdf:RDF></metadata><defs
     id="defs6"><linearGradient
       id="linearGradient3760"><stop
         style="stop-color:#ff0000;stop-opacity:1;"
         offset="0"
         id="stop3762" /><stop
         style="stop-color:#ffff00;stop-opacity:1;"
         offset="1"
         id="stop3764" /></linearGradient><inkscape:perspective
       sodipodi:type="inkscape:persp3d"
       inkscape:vp_x="0 : 0.5 : 1"
       inkscape:vp_y="0 : 1000 : 0"
       inkscape:vp_z="1 : 0.5 : 1"
       inkscape:persp3d-origin="0.5 : 0.33333333 : 1"
       id="perspective10" /><clipPath
       clipPathUnits="userSpaceOnUse"
       id="clipPath18"><path
         d="m 36.792,751.17 167.256,0 0,39.672 -167.256,0 0,-39.672 z"
         id="path20" /></clipPath><linearGradient
       x1="0"
       y1="0"
       x2="1"
       y2="0"
       gradientUnits="userSpaceOnUse"
       gradientTransform="matrix(-20.360977,-1.4237823,-1.4237823,20.360977,62.665894,774.85588)"
       spreadMethod="pad"
       id="linearGradient38"><stop
         style="stop-opacity:1;stop-color:#47237f"
         offset="0"
         id="stop40" /><stop
         style="stop-opacity:1;stop-color:#9c7dbf"
         offset="0.873627"
         id="stop42" /><stop
         style="stop-opacity:1;stop-color:#9c7dbf"
         offset="0.873627"
         id="stop44" /><stop
         style="stop-opacity:1;stop-color:#8b69b3"
         offset="1"
         id="stop46" /></linearGradient><linearGradient
       x1="0"
       y1="0"
       x2="1"
       y2="0"
       gradientUnits="userSpaceOnUse"
       gradientTransform="matrix(1.4237823,-20.361145,-20.361145,-1.4237823,52.702347,776.77754)"
       spreadMethod="pad"
       id="linearGradient62"><stop
         style="stop-opacity:1;stop-color:#47237f"
         offset="0"
         id="stop64" /><stop
         style="stop-opacity:1;stop-color:#9c7dbf"
         offset="0.873627"
         id="stop66" /><stop
         style="stop-opacity:1;stop-color:#9c7dbf"
         offset="0.873627"
         id="stop68" /><stop
         style="stop-opacity:1;stop-color:#8b69b3"
         offset="1"
         id="stop70" /></linearGradient><linearGradient
       x1="0"
       y1="0"
       x2="1"
       y2="0"
       gradientUnits="userSpaceOnUse"
       gradientTransform="matrix(20.360809,1.4237671,1.4237671,-20.360809,50.78067,766.81383)"
       spreadMethod="pad"
       id="linearGradient86"><stop
         style="stop-opacity:1;stop-color:#47237f"
         offset="0"
         id="stop88" /><stop
         style="stop-opacity:1;stop-color:#9c7dbf"
         offset="0.873627"
         id="stop90" /><stop
         style="stop-opacity:1;stop-color:#9c7dbf"
         offset="0.873627"
         id="stop92" /><stop
         style="stop-opacity:1;stop-color:#8b69b3"
         offset="1"
         id="stop94" /></linearGradient><linearGradient
       x1="0"
       y1="0"
       x2="1"
       y2="0"
       gradientUnits="userSpaceOnUse"
       gradientTransform="matrix(-1.4237671,20.360977,20.360977,1.4237671,60.744232,764.89232)"
       spreadMethod="pad"
       id="linearGradient110"><stop
         style="stop-opacity:1;stop-color:#47237f"
         offset="0"
         id="stop112" /><stop
         style="stop-opacity:1;stop-color:#9c7dbf"
         offset="0.873627"
         id="stop114" /><stop
         style="stop-opacity:1;stop-color:#9c7dbf"
         offset="0.87362701"
         id="stop116" /><stop
         style="stop-opacity:1;stop-color:#8b69b3"
         offset="1"
         id="stop118" /></linearGradient><clipPath
       clipPathUnits="userSpaceOnUse"
       id="clipPath146"><path
         d="m 113.387,543.525 406.344,0 0,-543.525 -406.344,0 0,543.525 z"
         id="path148" /></clipPath><linearGradient
       inkscape:collect="always"
       xlink:href="#linearGradient3760"
       id="linearGradient3766"
       x1="63.701"
       y1="721.43335"
       x2="53.703548"
       y2="741.61902"
       gradientUnits="userSpaceOnUse" /><linearGradient
       inkscape:collect="always"
       xlink:href="#linearGradient3760"
       id="linearGradient3772"
       gradientUnits="userSpaceOnUse"
       x1="63.701"
       y1="721.43335"
       x2="53.703548"
       y2="741.61902" /><linearGradient
       inkscape:collect="always"
       xlink:href="#linearGradient3760"
       id="linearGradient3774"
       gradientUnits="userSpaceOnUse"
       x1="63.701"
       y1="721.43335"
       x2="53.703548"
       y2="741.61902" /><linearGradient
       inkscape:collect="always"
       xlink:href="#linearGradient62"
       id="linearGradient3798"
       gradientUnits="userSpaceOnUse"
       gradientTransform="matrix(1.4237823,-20.361145,-20.361145,-1.4237823,52.702347,776.77754)"
       spreadMethod="pad"
       x1="0"
       y1="0"
       x2="1"
       y2="0" /><linearGradient
       inkscape:collect="always"
       xlink:href="#linearGradient3760"
       id="linearGradient3800"
       gradientUnits="userSpaceOnUse"
       x1="63.701"
       y1="721.43335"
       x2="53.703548"
       y2="741.61902" /><linearGradient
       inkscape:collect="always"
       xlink:href="#linearGradient3760"
       id="linearGradient3802"
       gradientUnits="userSpaceOnUse"
       x1="63.701"
       y1="721.43335"
       x2="53.703548"
       y2="741.61902" /><linearGradient
       inkscape:collect="always"
       xlink:href="#linearGradient62"
       id="linearGradient3816"
       gradientUnits="userSpaceOnUse"
       gradientTransform="matrix(1.4237823,-20.361145,-20.361145,-1.4237823,52.702347,776.77754)"
       spreadMethod="pad"
       x1="0"
       y1="0"
       x2="1"
       y2="0" /><linearGradient
       inkscape:collect="always"
       xlink:href="#linearGradient3760"
       id="linearGradient3818"
       gradientUnits="userSpaceOnUse"
       x1="63.701"
       y1="721.43335"
       x2="53.703548"
       y2="741.61902" /><linearGradient
       inkscape:collect="always"
       xlink:href="#linearGradient3760"
       id="linearGradient3820"
       gradientUnits="userSpaceOnUse"
       x1="63.701"
       y1="721.43335"
       x2="53.703548"
       y2="741.61902" /><linearGradient
       inkscape:collect="always"
       xlink:href="#linearGradient62"
       id="linearGradient3827"
       gradientUnits="userSpaceOnUse"
       gradientTransform="matrix(1.4237823,-20.361145,-20.361145,-1.4237823,52.702347,776.77754)"
       spreadMethod="pad"
       x1="0"
       y1="0"
       x2="1"
       y2="0" /><linearGradient
       inkscape:collect="always"
       xlink:href="#linearGradient3760"
       id="linearGradient3829"
       gradientUnits="userSpaceOnUse"
       x1="63.701"
       y1="721.43335"
       x2="53.703548"
       y2="741.61902" /><linearGradient
       inkscape:collect="always"
       xlink:href="#linearGradient3760"
       id="linearGradient3831"
       gradientUnits="userSpaceOnUse"
       x1="63.701"
       y1="721.43335"
       x2="53.703548"
       y2="741.61902" /><linearGradient
       inkscape:collect="always"
       xlink:href="#linearGradient62"
       id="linearGradient3837"
       gradientUnits="userSpaceOnUse"
       gradientTransform="matrix(1.4237823,-20.361145,-20.361145,-1.4237823,52.702347,776.77754)"
       spreadMethod="pad"
       x1="0"
       y1="0"
       x2="1"
       y2="0" /><linearGradient
       inkscape:collect="always"
       xlink:href="#linearGradient3760"
       id="linearGradient3839"
       gradientUnits="userSpaceOnUse"
       x1="63.701"
       y1="721.43335"
       x2="53.703548"
       y2="741.61902" /><linearGradient
       inkscape:collect="always"
       xlink:href="#linearGradient3760"
       id="linearGradient3841"
       gradientUnits="userSpaceOnUse"
       x1="63.701"
       y1="721.43335"
       x2="53.703548"
       y2="741.61902" /><linearGradient
       inkscape:collect="always"
       xlink:href="#linearGradient3760"
       id="linearGradient3844"
       gradientUnits="userSpaceOnUse"
       x1="63.701"
       y1="721.43335"
       x2="53.703548"
       y2="741.61902" /><linearGradient
       inkscape:collect="always"
       xlink:href="#linearGradient3760"
       id="linearGradient3847"
       gradientUnits="userSpaceOnUse"
       x1="63.701"
       y1="721.43335"
       x2="53.703548"
       y2="741.61902"
       gradientTransform="translate(27.979066,-48.396222)" /><linearGradient
       inkscape:collect="always"
       xlink:href="#linearGradient62"
       id="linearGradient3850"
       gradientUnits="userSpaceOnUse"
       gradientTransform="matrix(1.4237823,-20.361145,-20.361145,-1.4237823,52.702347,776.77754)"
       spreadMethod="pad"
       x1="0"
       y1="0"
       x2="1"
       y2="0" /><linearGradient
       inkscape:collect="always"
       xlink:href="#linearGradient38"
       id="linearGradient3852"
       gradientUnits="userSpaceOnUse"
       gradientTransform="matrix(-20.360977,-1.4237823,-1.4237823,20.360977,62.665894,774.85588)"
       spreadMethod="pad"
       x1="0"
       y1="0"
       x2="1"
       y2="0" /><linearGradient
       inkscape:collect="always"
       xlink:href="#linearGradient86"
       id="linearGradient3854"
       gradientUnits="userSpaceOnUse"
       gradientTransform="matrix(20.360809,1.4237671,1.4237671,-20.360809,50.78067,766.81383)"
       spreadMethod="pad"
       x1="0"
       y1="0"
       x2="1"
       y2="0" /><linearGradient
       inkscape:collect="always"
       xlink:href="#linearGradient110"
       id="linearGradient3856"
       gradientUnits="userSpaceOnUse"
       gradientTransform="matrix(-1.4237671,20.360977,20.360977,1.4237671,60.744232,764.89232)"
       spreadMethod="pad"
       x1="0"
       y1="0"
       x2="1"
       y2="0" /></defs><sodipodi:namedview
     pagecolor="#ffffff"
     bordercolor="#666666"
     borderopacity="1"
     objecttolerance="10"
     gridtolerance="10"
     guidetolerance="10"
     inkscape:pageopacity="0"
     inkscape:pageshadow="2"
     inkscape:window-width="1280"
     inkscape:window-height="725"
     id="namedview4"
     showgrid="false"
     inkscape:zoom="3.1738015"
     inkscape:cx="33.948979"
     inkscape:cy="8.3647983"
     inkscape:window-x="-9"
     inkscape:window-y="-9"
     inkscape:window-maximized="1"
     inkscape:current-layer="g12" /><g
     id="g12"
     inkscape:groupmode="layer"
     inkscape:label="mareport170210"
     transform="matrix(1.25,0,0,-1.25,-53.152244,981.29625)"><g
       id="g14"><g
         id="g16"
         clip-path="url(#clipPath18)"><g
           id="g22"
           transform="translate(181.3316,773.4943)"><path
             d="m 0,0 c -3.149,0 -4.788,-2.164 -4.788,-5.028 0,-2.951 1.639,-4.918 4.568,-4.918 2.929,0 4.744,1.923 4.744,4.963 C 4.524,-1.858 2.841,0 0,0 m -31.675,0 c -3.148,0 -4.787,-2.164 -4.787,-5.028 0,-2.951 1.639,-4.918 4.569,-4.918 2.93,0 4.743,1.923 4.743,4.963 0,3.125 -1.684,4.983 -4.525,4.983 m -63.778,-4.067 3.367,0 0,-3.169 c -1.028,-0.896 -2.602,-1.245 -3.869,-1.245 -3.17,0 -4.984,2.055 -4.984,5.662 0,3.825 1.945,5.945 4.94,5.945 1.792,0 3.126,-0.634 4.394,-1.836 l 1.114,1.268 c -1.136,1.246 -3.082,2.164 -5.311,2.164 -4.482,0 -7.127,-3.126 -7.127,-7.498 0,-4.284 2.208,-7.258 6.995,-7.258 2.645,0 4.7,1.16 5.706,2.252 l 0,5.181 -5.225,0 0,-1.466 z m 49.636,-5.661 1.728,0 0,5.465 c 0,1.574 0.676,2.668 2.316,2.668 1.53,0 2.011,-0.656 2.011,-2.252 l 0,-5.881 1.77,0 0,6.384 c 0,2.186 -0.918,3.322 -2.994,3.322 -1.421,0 -2.47,-0.524 -3.103,-1.421 l 0,5.99 -1.728,0 0,-14.275 z m -0.918,12.745 0,1.53 -10.1,0 0,-1.53 4.132,0 0,-12.745 1.902,0 0,12.745 4.066,0 z m 52.877,-12.745 1.726,0 0,5.465 c 0,1.574 0.678,2.668 2.317,2.668 1.529,0 2.012,-0.656 2.012,-2.252 l 0,-5.881 1.77,0 0,6.384 c 0,2.186 -0.917,3.322 -2.995,3.322 -1.42,0 -2.471,-0.524 -3.104,-1.421 l -0.218,1.203 -1.508,0 0,-9.488 z m -79.101,0 1.726,0 0,5.465 c 0,1.574 0.678,2.668 2.317,2.668 1.531,0 2.011,-0.656 2.011,-2.252 l 0,-5.881 1.771,0 0,6.384 c 0,2.186 -0.918,3.322 -2.995,3.322 -1.42,0 -2.47,-0.524 -3.104,-1.421 l -0.218,1.203 -1.508,0 0,-9.488 z m 53.482,0 1.727,0 0,5.465 c 0,1.574 0.677,2.668 2.317,2.668 1.53,0 2.011,-0.656 2.011,-2.252 l 0,-5.881 1.77,0 0,6.384 c 0,2.186 -0.918,3.322 -2.994,3.322 -1.42,0 -2.47,-0.524 -3.104,-1.421 l -0.219,1.203 -1.508,0 0,-9.488 z m 19.345,1.224 c -1.705,0 -2.798,1.181 -2.798,3.541 0,2.253 1.136,3.52 2.82,3.52 1.706,0 2.71,-1.246 2.71,-3.629 0,-2.294 -1.049,-3.432 -2.732,-3.432 m -31.675,0 c -1.704,0 -2.798,1.181 -2.798,3.541 0,2.253 1.138,3.52 2.821,3.52 1.704,0 2.711,-1.246 2.711,-3.629 0,-2.294 -1.05,-3.432 -2.734,-3.432 m 26.385,6.712 0,1.552 -1.946,0 0,2.71 -1.813,-0.285 0,-2.425 -1.377,0 0,-1.552 1.377,0 0,-6.034 c 0,-1.355 0.502,-2.164 2.491,-2.164 0.438,0 1.093,0.087 1.487,0.197 l 0,1.355 c -0.414,-0.109 -0.809,-0.131 -1.092,-0.131 -0.831,0 -1.073,0.393 -1.073,1.267 l 0,5.51 1.946,0 z m -53.418,0 0,1.552 -1.944,0 0,2.71 -1.814,-0.285 0,-2.425 -1.377,0 0,-1.552 1.377,0 0,-6.034 c 0,-1.355 0.503,-2.164 2.492,-2.164 0.438,0 1.092,0.087 1.486,0.197 l 0,1.355 c -0.415,-0.109 -0.809,-0.131 -1.093,-0.131 -0.83,0 -1.071,0.393 -1.071,1.267 l 0,5.51 1.944,0 z m 33.285,-7.936 1.772,0 0,5.946 c 0,1.378 0.851,2.012 1.944,2.012 0.372,0 0.744,-0.022 1.138,-0.088 l 0,1.727 C -21.03,-0.022 -21.335,0 -21.641,0 c -0.983,0 -1.75,-0.59 -2.142,-1.399 l -0.219,1.159 -1.553,0 0,-9.488 z m -62.793,0 1.771,0 0,5.946 c 0,1.378 0.852,2.012 1.945,2.012 0.371,0 0.743,-0.022 1.137,-0.088 l 0,1.727 C -83.824,-0.022 -84.13,0 -84.435,0 c -0.984,0 -1.749,-0.59 -2.142,-1.399 l -0.219,1.159 -1.552,0 0,-9.488 z m 5.005,2.58 c 0,-1.356 0.787,-2.798 3.236,-2.798 1.42,0 2.404,0.546 3.082,1.421 l 0.24,-1.203 1.53,0 0,6.472 c 0,2.776 -1.661,3.256 -3.628,3.256 -1.487,0 -3.432,-0.437 -3.913,-2.667 l 1.88,0 c 0.24,0.831 0.809,1.312 2.011,1.312 0.984,0 1.924,-0.35 1.924,-1.923 l 0,-0.679 -2.077,0 c -2.492,0 -4.285,-0.83 -4.285,-3.191 m 3.804,-1.421 c -1.399,0 -1.924,0.612 -1.924,1.596 0,1.136 0.634,1.727 2.295,1.727 l 2.187,0 0,-0.656 c 0,-1.727 -1.072,-2.667 -2.558,-2.667"
             style="fill:#231f20;fill-opacity:1;fill-rule:nonzero;stroke:none"
             id="path24" /></g></g></g><g
       id="g26"><g
         id="g28"><g
           id="g34"><g
             id="g36"><path
               d="m 49.747,783.202 c -0.097,-0.055 -0.197,-0.108 -0.295,-0.167 l 0,0 c -6.641,-3.957 -8.875,-12.481 -5.095,-19.178 l 0,0 c -2.708,5.161 3.341,15.331 12.366,12.461 l 0,0 c 2.236,-0.711 4.013,-2.378 5.211,-4.744 l 0,0 c 0.161,-0.318 0.242,-0.794 0.156,-1.074 l 0,0 c 0.042,0.111 0.079,0.221 0.116,0.336 l 0,0 c 2.401,7.549 -4.323,13.015 -9.606,13.016 l 0,0 c -1.033,0 -2.009,-0.209 -2.853,-0.65"
               style="fill:url(#linearGradient3852);stroke:none"
               id="path48" /></g></g></g></g><path
       d="m 44.357,763.86 c 0.054,-0.099 0.108,-0.198 0.166,-0.296 l 0,0 c 3.957,-6.641 12.481,-8.876 19.178,-5.095 l 0,0 c -5.161,-2.708 -15.331,3.341 -12.46,12.366 l 0,0 c 0.711,2.235 2.377,4.013 4.744,5.211 l 0,0 c 0.317,0.16 0.793,0.242 1.073,0.156 l 0,0 c -0.111,0.042 -0.221,0.079 -0.335,0.116 l 0,0 c -1.082,0.344 -2.124,0.501 -3.111,0.501 l 0,0 c -7.24,0.001 -11.637,-8.417 -9.255,-12.959"
       style="fill:url(#linearGradient3850);stroke:none"
       id="path72" /><g
       id="g74"><g
         id="g76"><g
           id="g82"><g
             id="g84"><path
               d="m 56.723,765.353 c -2.235,0.71 -4.013,2.377 -5.211,4.744 l 0,0 c -0.16,0.317 -0.242,0.793 -0.156,1.072 l 0,0 c -0.041,-0.11 -0.079,-0.221 -0.115,-0.334 l 0,0 c -2.87,-9.024 7.296,-15.074 12.457,-12.366 l 0,0 c 0.099,0.055 0.198,0.108 0.296,0.166 l 0,0 c 6.641,3.957 8.876,12.48 5.095,19.177 l 0,0 c 2.709,-5.16 -3.341,-15.329 -12.366,-12.459"
               style="fill:url(#linearGradient3854);stroke:none"
               id="path96" /></g></g></g></g><g
       id="g98"><g
         id="g100"><g
           id="g106"><g
             id="g108"><path
               d="m 49.746,783.201 c 5.16,2.709 15.329,-3.341 12.46,-12.365 l 0,0 c -0.712,-2.237 -2.378,-4.014 -4.745,-5.211 l 0,0 c -0.316,-0.161 -0.792,-0.243 -1.072,-0.157 l 0,0 c 0.11,-0.041 0.221,-0.079 0.334,-0.115 l 0,0 c 9.024,-2.87 15.073,7.296 12.366,12.458 l 0,0 c -0.054,0.098 -0.107,0.197 -0.165,0.295 l 0,0 c -2.657,4.457 -7.371,6.93 -12.209,6.931 l 0,0 c -2.369,0 -4.768,-0.593 -6.969,-1.836"
               style="fill:url(#linearGradient3856);stroke:none"
               id="path120" /></g></g></g></g></g></svg>