<?xml version="1.0" encoding="UTF-8" standalone="no"?><svg id="svg2" xmlns="http://www.w3.org/2000/svg" xml:space="preserve" height="400" width="400" version="1.0"><path id="Square" d="m78.539 841.89h69.461v-69.46h-69.461v69.46z" transform="matrix(5.7586 0 0 -5.7586 -452.28 4848.1)" fill="#b5dc17"/><path id="Hogan-Lovells" d="m141.57 787.67c-0.7 0.6-1.62 0.92-2.86 0.92-1.99 0-3.19-1.09-3.19-2.54 0-2.19 1.71-2.59 2.61-2.96 1.55-0.67 2.37-0.97 2.37-2.14 0-0.75-0.55-1.32-1.94-1.32-1.4 0-2.42 0.95-2.42 2.59h-0.64v-2.44c0.67-0.45 1.64-0.82 3.06-0.82 2.11 0 3.46 0.99 3.46 2.76 0 1.3-0.55 2.02-2.12 2.74-1.42 0.64-3.01 0.92-3.01 2.16 0 0.88 0.72 1.32 1.82 1.32 2.01 0 2.23-1.61 2.23-2.46h0.63v2.19zm-8.27 9.38v0.65h1.55v5.25c0 1.22 0.02 2.71-1.4 2.71-0.87 0-1.61-0.57-2.04-1.29-0.47-0.75-0.59-1.69-0.59-2.59v-4.08h1.51v-0.65h-5v0.65h1.55v7.89h-1.55v0.67h3.49v-1.64c0.64 1.14 1.64 1.89 3.18 1.89 1.7 0 2.77-1.09 2.77-3.03v-5.78h1.54v-0.65h-5.01zm-8.31-17.84v0.65h1.52v12.06h-1.52v0.65h3.34v-12.71h3.08v12.06h-1.51v0.65h3.35v-12.71h1.52v-0.65h-9.78zm-1.64 22c0-1.07-0.03-1.77-0.72-2.61-0.4-0.45-0.9-0.75-1.52-0.75-1.02 0-1.3 0.82-1.25 1.91 0 1.87 1.05 2.25 3.49 2.27v-0.82zm-4.98-16.13c0 1.34 0.37 2.84 1.84 2.84 1.05 0 1.89-0.7 1.89-2.84h-3.73zm4.98 18.04v-0.47c-2.96 0.08-5.45-0.69-5.45-3.11 0-1.69 0.84-2.64 2.61-2.64 1.37 0 2.17 0.7 2.84 1.72v-1.57h3.33v0.65h-1.46v5.3c0 2.61-0.93 3.51-3.49 3.51-1.17 0-2.21-0.37-2.89-0.94v-2.2h0.68c0 1.07 0.34 2.45 2.16 2.45 1.59 0 1.67-1.05 1.67-2.7m0.99-18.76c0.06 2.41-1.59 4.23-4.06 4.23-2.43 0-4.07-2.24-4.07-4.8 0-2.67 1.41-4.83 4.13-4.83 3.11 0 3.83 2.84 3.83 2.84l-0.67 0.2s-0.65-2.22-2.77-2.22c-2.11 0-2.41 2.34-2.41 4.43v0.15h6.02zm-11.59 21.5c1.41 0 1.59-1.44 1.59-2.58 0-1.18-0.18-2.57-1.59-2.57-1.4 0-1.6 1.39-1.6 2.57 0 1.14 0.2 2.58 1.6 2.58m-2.34-5.07c-0.93-0.25-1.62-0.9-1.62-2.05 0-1.66 1.09-2.06 3.73-2.06h1.22c1.2 0 2.19-0.2 2.19-1.42 0-1.59-1.62-1.79-3.03-1.79-2.4 0-3.39 1.1-3.39 2.59h-0.65v-2.34c0.92-0.53 2.04-0.9 4.04-0.95 1.94 0 4.2 0.4 4.2 3.09 0 1.79-1.24 2.56-3.76 2.56h-1.79c-1.25 0-1.77 0.23-1.77 0.9 0 0.59 0.6 0.94 1.3 1.07 0.45-0.2 1.02-0.32 1.67-0.32 2.68 0 3.43 1.91 3.43 3.21 0 0.64-0.15 1.14-0.5 1.79 0.35 0.17 0.85 0.25 1.42 0.25v0.64h-2.26c-0.53 0.33-1.2 0.55-2.09 0.55-2.69 0-3.41-1.92-3.41-3.23 0-0.8 0.25-1.82 1.07-2.49m-4.88-13.05h1.32l3.75-8.63h0.78l3.53 8.63h1.24v0.63h-3.55v-0.63h1.49l-2.54-6.22-2.66 6.22h1.41v0.63h-4.77v-0.63zm-2.47 18.08c2.17 0 2.24-2.27 2.24-4.11s-0.07-4.11-2.24-4.11c-2.11 0-2.19 2.27-2.19 4.11s0.08 4.11 2.19 4.11m-1.89-17.93c2.17 0 2.24-2.26 2.24-4.1 0-1.85-0.07-4.11-2.24-4.11-2.115 0-2.19 2.26-2.19 4.11 0 1.84 0.075 4.1 2.19 4.1m1.89 9.01c3.49 0 4.36 3.12 4.36 4.81s-0.87 4.8-4.36 4.8c-3.458 0-4.353-3.11-4.353-4.8s0.895-4.81 4.353-4.81m-1.89-17.92c3.49 0 4.38 3.11 4.38 4.81 0 1.69-0.89 4.8-4.38 4.8-3.459 0-4.354-3.11-4.354-4.8 0-1.7 0.895-4.81 4.354-4.81m-14.682 0.88h-1.593v-0.65h10.453v4.48h-0.672c0-2.34-1.52-3.83-3.836-3.83h-2.211v12.06h1.59v0.65h-5.324v-0.65h1.593v-12.06zm6.446 17.19v0.65h1.593v5.9h-5.898v-5.9h1.59v-0.65h-5.324v0.65h1.593v12.15h-1.593v0.64h5.5v-0.64h-1.766v-5.51h5.898v5.51h-1.593v0.64h5.3v-0.64h-1.593v-12.15h1.593v-0.65h-5.3z" transform="matrix(5.7586 0 0 -5.7586 -452.28 4848.1)" fill="#231f20"/></svg>
