<?xml version="1.0" encoding="UTF-8" standalone="no"?>
<!-- Created with Inkscape (http://www.inkscape.org/) -->
<svg
   xmlns:svg="http://www.w3.org/2000/svg"
   xmlns="http://www.w3.org/2000/svg"
   version="1.0"
   width="602.36218"
   height="150.83858"
   id="svg2485">
  <defs
     id="defs2487" />
  <g
     transform="translate(-341.69616,-301.42043)"
     id="layer1">
    <g
       transform="matrix(4.4278781,0,0,4.4278781,-1153.5762,-1411.0965)"
       id="g2498">
      <path
         d="M 462.26369,390.7595 C 460.33869,390.7595 458.51743,390.99825 456.76369,391.5095 C 455.01119,392.02075 453.46245,392.837 452.13869,393.947 C 450.81119,395.0545 449.74244,396.49197 448.95119,398.2595 C 448.16244,400.027 447.79494,402.19452 447.79494,404.72825 C 447.79494,406.4595 448.09243,408.05447 448.70119,409.54075 C 449.30494,411.02825 450.17119,412.29949 451.32619,413.3845 C 452.47869,414.46825 453.90618,415.31953 455.57619,415.91575 C 457.24244,416.51325 459.11244,416.82198 461.23244,416.822 C 464.22869,416.822 466.72495,416.32073 468.70119,415.322 C 468.74869,414.8095 468.83619,414.28328 468.98244,413.7595 C 469.12619,413.23575 469.31993,412.70949 469.51369,412.197 L 469.01369,411.91575 C 468.62244,412.332 468.19368,412.69952 467.66994,413.04075 C 467.14744,413.382 466.56619,413.68451 465.98244,413.91575 C 465.39619,414.14825 464.8112,414.31327 464.20119,414.447 C 463.59494,414.58075 463.00245,414.66573 462.41994,414.66575 C 461.36994,414.66575 460.3287,414.46072 459.29494,414.072 C 458.25994,413.68075 457.32995,413.06825 456.51369,412.22825 C 455.69619,411.38825 455.02619,410.30576 454.51369,408.97825 C 454.00244,407.6495 453.76368,406.042 453.76369,404.16575 C 453.76369,402.21575 454.01368,400.53575 454.51369,399.1345 C 455.01119,397.73325 455.64619,396.59951 456.45119,395.697 C 457.25244,394.797 458.15244,394.10577 459.13869,393.66575 C 460.12369,393.227 461.10369,393.00953 462.07619,393.0095 C 463.39244,393.0095 464.53869,393.26075 465.51369,393.7595 C 466.48619,394.2595 467.43119,395.09074 468.35744,396.2595 L 468.88869,396.2595 C 468.93869,395.627 469.00494,395.00572 469.13869,394.3845 C 469.27369,393.76325 469.48868,393.15072 469.73244,392.54075 C 469.31869,392.297 468.79745,392.07323 468.20119,391.85325 C 467.60619,391.6345 466.98245,391.45074 466.32619,391.29075 C 465.66744,391.13325 464.96744,390.98202 464.26369,390.8845 C 463.55744,390.787 462.89745,390.75951 462.26369,390.7595 z M 381.38869,391.2595 C 381.41119,392.13575 381.46868,393.14699 381.51369,394.29075 C 381.55801,395.42998 381.57618,396.8431 381.57619,398.5095 C 381.57619,400.3595 381.54245,402.2845 381.48244,404.29075 C 381.42119,406.29825 381.34743,408.16948 381.26369,409.8845 C 381.17869,411.60075 381.08619,413.03702 381.01369,414.22825 C 380.93994,415.4195 380.87369,416.12701 380.82619,416.322 C 381.38494,416.2845 381.95745,416.25947 382.51369,416.2595 L 383.35744,416.2595 C 383.64619,416.2595 383.93993,416.28451 384.23244,416.322 C 384.20619,416.05575 384.16244,415.67952 384.13869,415.22825 C 384.11244,414.78075 384.0987,414.21575 384.07619,413.5095 C 384.05119,412.8045 384.02494,411.93822 384.01369,410.91575 C 384.00119,409.89325 384.01368,408.65698 384.01369,407.197 L 384.01369,402.947 C 384.01369,402.217 384.00494,401.52827 384.01369,400.822 C 384.02119,400.11575 384.02744,399.40326 384.04494,398.697 C 389.66744,404.61075 395.0012,410.48201 400.01369,416.322 C 400.42744,416.2845 400.91618,416.25947 401.45119,416.2595 C 401.96244,416.2595 402.46369,416.28451 402.95119,416.322 L 402.95119,411.947 C 402.95119,410.1945 402.9362,408.52327 402.95119,406.97825 C 402.95994,405.43325 402.9937,403.87327 403.04494,402.29075 C 403.09494,400.71075 403.15619,399.04823 403.23244,397.2595 C 403.30869,395.472 403.4162,393.47452 403.54494,391.2595 C 402.86244,391.3695 402.30119,391.41576 401.88869,391.41575 C 401.47369,391.41575 400.94495,391.36952 400.26369,391.2595 C 400.30869,391.50325 400.35368,391.96075 400.38869,392.66575 C 400.42369,393.372 400.4412,394.22573 400.45119,395.197 C 400.46244,396.172 400.46995,397.22823 400.48244,398.3845 C 400.49244,399.5395 400.51369,400.72449 400.51369,401.91575 L 400.51369,405.447 L 400.51369,408.60325 C 397.79244,405.6595 395.13243,402.76199 392.54494,399.91575 C 389.95869,397.06825 387.31869,394.20452 384.66994,391.2595 C 383.98994,391.3695 383.45995,391.41576 383.04494,391.41575 C 382.63369,391.41575 382.06869,391.36952 381.38869,391.2595 z M 411.04494,391.2595 C 411.13619,392.842 411.2162,394.40823 411.26369,395.97825 C 411.30869,397.54575 411.3262,399.33322 411.32619,401.35325 L 411.32619,406.322 C 411.32619,408.34075 411.3087,410.12828 411.26369,411.697 C 411.21619,413.26575 411.13619,414.81326 411.04494,416.322 C 411.45744,416.2845 411.89994,416.25947 412.38869,416.2595 L 414.04494,416.2595 L 415.66994,416.2595 C 416.15494,416.2595 416.63243,416.28451 417.04494,416.322 C 416.95244,414.81325 416.8737,413.26578 416.82619,411.697 C 416.77994,410.12825 416.76368,408.34073 416.76369,406.322 L 416.76369,401.35325 C 416.76369,399.33325 416.77995,397.54573 416.82619,395.97825 C 416.87369,394.40825 416.95243,392.84202 417.04494,391.2595 C 416.63244,391.3045 416.15494,391.32074 415.66994,391.35325 C 415.18369,391.387 414.6537,391.41576 414.04494,391.41575 C 413.43869,391.41575 412.87494,391.38699 412.38869,391.35325 C 411.89994,391.32075 411.45744,391.30452 411.04494,391.2595 z M 424.91994,391.2595 C 425.03244,392.842 425.11494,394.40823 425.16994,395.97825 C 425.22619,397.54575 425.2637,399.33322 425.26369,401.35325 L 425.26369,406.322 C 425.26369,408.34075 425.22619,410.12828 425.16994,411.697 C 425.11494,413.26575 425.03244,414.81326 424.91994,416.322 C 425.33494,416.2845 425.88244,416.25947 426.57619,416.2595 L 428.60744,416.2595 C 429.53244,416.2595 430.4237,416.27197 431.26369,416.29075 C 432.10369,416.30825 433.00868,416.32201 433.98244,416.322 C 435.07744,416.322 436.11869,416.20951 437.13869,415.97825 C 438.16369,415.74575 439.06619,415.34326 439.85744,414.7595 C 440.64744,414.17325 441.28995,413.4045 441.76369,412.47825 C 442.23619,411.552 442.48243,410.42077 442.48244,409.10325 C 442.48244,408.00825 442.2362,407.08947 441.76369,406.322 C 441.28994,405.55325 440.72618,404.93448 440.04494,404.447 C 439.36619,403.95825 438.64243,403.58577 437.88869,403.35325 C 437.13369,403.122 436.47868,403.00322 435.91994,402.97825 L 435.91994,402.91575 C 436.48619,402.8195 437.12369,402.6195 437.82619,402.35325 C 438.52494,402.087 439.16245,401.73326 439.76369,401.2595 C 440.36494,400.78575 440.8762,400.16452 441.29494,399.447 C 441.71369,398.73075 441.91995,397.88077 441.91994,396.8845 C 441.91994,395.88825 441.7437,395.03947 441.38869,394.322 C 441.03494,393.60575 440.51619,393.02078 439.85744,392.572 C 439.19869,392.122 438.41869,391.79072 437.51369,391.572 C 436.61369,391.35325 435.61369,391.25952 434.51369,391.2595 C 433.46369,391.2595 432.37995,391.26578 431.23244,391.322 C 430.08369,391.377 428.96994,391.41576 427.91994,391.41575 C 427.31119,391.41575 426.78118,391.38699 426.29494,391.35325 C 425.80369,391.32075 425.33744,391.30452 424.91994,391.2595 z M 431.48244,393.35325 C 431.69119,393.342 432.04119,393.35326 432.57619,393.35325 C 433.30619,393.35325 433.93245,393.46573 434.41994,393.697 C 434.90869,393.927 435.28994,394.227 435.60744,394.60325 C 435.92244,394.97825 436.15995,395.42698 436.29494,395.947 C 436.42869,396.467 436.51369,397.02198 436.51369,397.60325 C 436.51369,398.377 436.3812,399.05326 436.13869,399.6345 C 435.89494,400.21575 435.56119,400.69698 435.16994,401.072 C 434.77994,401.447 434.35493,401.72197 433.85744,401.91575 C 433.35619,402.1095 432.83745,402.19703 432.32619,402.197 L 430.70119,402.197 C 430.70119,401.5695 430.68993,400.97824 430.66994,400.3845 C 430.65369,399.79075 430.63868,399.16326 430.63869,398.5095 C 430.63869,397.88075 430.6437,397.08452 430.66994,396.16575 C 430.69619,395.24575 430.7387,394.34324 430.79494,393.447 C 431.03744,393.39825 431.27493,393.36574 431.48244,393.35325 z M 432.26369,404.29075 C 433.72994,404.29075 434.83744,404.73326 435.60744,405.572 C 436.37744,406.4095 436.76369,407.68574 436.76369,409.3845 C 436.76369,410.18575 436.67243,410.87075 436.45119,411.47825 C 436.23119,412.0845 435.94243,412.61448 435.57619,413.04075 C 435.20869,413.46575 434.78493,413.79201 434.29494,414.0095 C 433.80619,414.22825 433.30118,414.322 432.76369,414.322 C 432.34869,414.322 431.99243,414.33073 431.70119,414.322 C 431.40744,414.31325 431.07369,414.27949 430.73244,414.2595 C 430.73244,413.94325 430.71994,413.55823 430.70119,413.072 C 430.68244,412.587 430.70118,412.06074 430.70119,411.47825 C 430.70119,410.89575 430.68993,410.27199 430.66994,409.66575 C 430.65369,409.057 430.63868,408.46577 430.63869,407.8845 C 430.63869,407.13075 430.65368,406.49447 430.66994,405.947 C 430.68994,405.402 430.70118,404.86327 430.70119,404.35325 C 430.92119,404.35325 431.14495,404.34327 431.38869,404.322 C 431.63244,404.307 431.9212,404.29074 432.26369,404.29075 z"
         id="path35"
         style="fill:#00153c;fill-opacity:1;fill-rule:nonzero;stroke:none" />
      <path
         d="M 367.67739,416.26137 C 366.32364,416.26137 358.98239,416.33887 355.91614,416.73762 L 354.70114,391.46637 C 358.47614,391.46637 362.71239,391.42512 366.28614,390.97137 L 367.67739,416.26137 z"
         id="path51"
         style="fill:#e31818;fill-opacity:1;fill-rule:nonzero;stroke:none" />
      <path
         d="M 341.69614,416.26137 C 343.04989,416.26137 350.39114,416.33887 353.45739,416.73762 L 354.67114,391.46637 C 350.89739,391.46637 346.65989,391.42512 343.08739,390.97137 L 341.69614,416.26137 z"
         id="path55"
         style="fill:#58a2dc;fill-opacity:1;fill-rule:nonzero;stroke:none" />
    </g>
  </g>
</svg>
