<?xml version="1.0" encoding="UTF-8" standalone="no"?>
<!-- Created with Inkscape (http://www.inkscape.org/) -->

<svg
   xmlns:dc="http://purl.org/dc/elements/1.1/"
   xmlns:cc="http://creativecommons.org/ns#"
   xmlns:rdf="http://www.w3.org/1999/02/22-rdf-syntax-ns#"
   xmlns:svg="http://www.w3.org/2000/svg"
   xmlns="http://www.w3.org/2000/svg"
   xmlns:sodipodi="http://sodipodi.sourceforge.net/DTD/sodipodi-0.dtd"
   xmlns:inkscape="http://www.inkscape.org/namespaces/inkscape"
   width="139.60933mm"
   height="25.23583mm"
   viewBox="0 0 139.60933 25.23583"
   version="1.1"
   id="svg234"
   inkscape:version="0.92.0 r15299"
   sodipodi:docname="nwb bank.svg">
  <defs
     id="defs228" />
  <sodipodi:namedview
     id="base"
     pagecolor="#ffffff"
     bordercolor="#666666"
     borderopacity="1.0"
     inkscape:pageopacity="0.0"
     inkscape:pageshadow="2"
     inkscape:zoom="1.7122315"
     inkscape:cx="261.93888"
     inkscape:cy="45.799994"
     inkscape:document-units="mm"
     inkscape:current-layer="layer1"
     showgrid="false"
     fit-margin-top="0"
     fit-margin-left="0"
     fit-margin-right="0"
     fit-margin-bottom="0"
     inkscape:window-width="1280"
     inkscape:window-height="744"
     inkscape:window-x="-4"
     inkscape:window-y="-4"
     inkscape:window-maximized="1" />
  <metadata
     id="metadata231">
    <rdf:RDF>
      <cc:Work
         rdf:about="">
        <dc:format>image/svg+xml</dc:format>
        <dc:type
           rdf:resource="http://purl.org/dc/dcmitype/StillImage" />
        <dc:title></dc:title>
      </cc:Work>
    </rdf:RDF>
  </metadata>
  <g
     inkscape:label="Layer 1"
     inkscape:groupmode="layer"
     id="layer1"
     transform="translate(-85.665577,-169.73328)">
    <g
       id="g264"
       transform="translate(0.50000157,-0.49999923)">
      <path
         style="fill:#004a61;stroke-width:0.26458332"
         inkscape:connector-curvature="0"
         class="st1"
         d="m 89.158075,180.86682 v 6.985 c 0,0.23812 -0.185208,0.42333 -0.423333,0.42333 h -2.645833 c -0.238122,0 -0.423332,-0.18521 -0.423332,-0.42333 v -9.92188 c 0,-0.23812 0.18521,-0.42333 0.423332,-0.42333 h 4.550833 c 0.238125,0 0.529167,0.13229 0.687917,0.3175 l 5.979583,7.17021 c 0.132291,0.18521 0.3175,0.42333 0.343958,0.42333 l -0.02646,-0.52916 v -6.95855 c 0,-0.23812 0.185208,-0.42333 0.423333,-0.42333 h 2.645837 c 0.23812,0 0.42333,0.18521 0.42333,0.42333 v 9.92188 c 0,0.23812 -0.18521,0.42333 -0.42333,0.42333 h -4.577295 c -0.238125,0 -0.529167,-0.13229 -0.687917,-0.3175 l -5.979583,-7.19666 c -0.15875,-0.18521 -0.3175,-0.39688 -0.3175,-0.39688 z"
         id="path50" />
      <path
         style="fill:#004a61;stroke-width:0.26458332"
         inkscape:connector-curvature="0"
         class="st1"
         d="m 106.06495,177.90349 c -0.0794,-0.21167 0.0529,-0.39688 0.29104,-0.39688 h 2.56646 c 0.23812,0 0.47625,0.18521 0.52917,0.39688 l 2.16958,7.11729 c 0.0794,0.21166 0.13229,0.55562 0.13229,0.55562 0,0 0.0794,-0.34396 0.15875,-0.55562 l 2.59292,-7.11729 c 0.0794,-0.21167 0.3175,-0.39688 0.55562,-0.39688 h 2.38125 c 0.23813,0 0.47625,0.18521 0.55563,0.39688 l 2.59291,7.11729 c 0.0794,0.21166 0.15875,0.55562 0.15875,0.55562 0,0 0.0794,-0.34396 0.1323,-0.55562 l 2.16958,-7.11729 c 0.0529,-0.21167 0.3175,-0.39688 0.52917,-0.39688 h 2.56645 c 0.23813,0 0.34396,0.18521 0.29105,0.39688 l -3.38667,9.97479 c -0.0794,0.21166 -0.3175,0.39687 -0.55563,0.39687 h -3.14854 c -0.23812,0 -0.47625,-0.18521 -0.55562,-0.39687 l -2.35479,-6.32354 c -0.0794,-0.21167 -0.15875,-0.55563 -0.15875,-0.55563 0,0 -0.0794,0.34396 -0.15875,0.55563 l -2.3548,6.32354 c -0.0794,0.21166 -0.3175,0.39687 -0.55562,0.39687 h -3.14854 c -0.23813,0 -0.47625,-0.18521 -0.55563,-0.39687 z"
         id="path54" />
      <path
         id="path58"
         d="m 134.82516,181.81932 h 6.16479 c 0.635,0 1.00542,-0.23813 1.00542,-0.89958 0,-0.66146 -0.37042,-0.89959 -1.00542,-0.89959 h -6.16479 z m 0,3.91583 h 6.24416 c 0.74084,0 1.24355,-0.18521 1.24355,-0.84666 0,-0.79375 -0.50271,-0.9525 -1.24355,-0.9525 h -6.24416 z m 8.75771,-2.91041 c 1.50812,0.1852 2.30187,0.97895 2.30187,2.59291 0,2.35479 -1.45521,2.8575 -3.43958,2.8575 h -10.60979 c -0.23813,0 -0.42334,-0.18521 -0.42334,-0.42333 v -9.92188 c 0,-0.23812 0.18521,-0.42333 0.42334,-0.42333 h 9.55145 c 2.75167,0 4.10105,0.71438 4.10105,2.83104 -0.0265,1.82563 -0.9525,2.2225 -1.905,2.48709 z"
         class="st1"
         inkscape:connector-curvature="0"
         style="fill:#004a61;stroke-width:0.26458332" />
      <path
         id="path60"
         d="m 162.28891,188.24869 c -0.23813,0 -0.42334,-0.1852 -0.42334,-0.42333 v -9.89542 c 0,-0.23812 0.18521,-0.42333 0.42334,-0.42333 h 7.85812 c 2.01084,0 2.56646,1.16417 2.56646,2.38125 v 0.92604 c 0,0.76729 -0.39687,1.56104 -1.56104,1.69334 v 0.0529 c 1.03187,0.0529 1.93146,0.50271 1.93146,2.11667 v 1.27 c 0,1.50812 -1.19063,2.27542 -2.80459,2.27542 z m 9.10166,-8.41375 c 0,-0.97895 -0.97895,-1.1377 -1.37583,-1.1377 h -6.82625 v 3.43958 h 6.77333 c 0.71438,0 1.45521,-0.26458 1.45521,-1.32292 v -0.97896 z m 0.37042,5.02709 c 0,-1.34938 -0.66146,-1.53459 -1.85208,-1.53459 h -6.72042 v 3.75709 h 6.93208 c 1.21709,0 1.66688,-0.50271 1.66688,-1.42875 v -0.79375 z"
         class="st1"
         inkscape:connector-curvature="0"
         style="fill:#004a61;stroke-width:0.26458332" />
      <path
         id="path62"
         d="m 182.60891,177.87703 c 0.10583,-0.21167 0.37041,-0.37042 0.60854,-0.37042 h 0.79375 c 0.23812,0 0.50271,0.15875 0.60854,0.37042 l 5.37105,10.02771 c 0.10583,0.21166 0,0.37041 -0.21167,0.37041 h -0.66146 c -0.29104,0 -0.44979,-0.0794 -0.60854,-0.37041 l -0.82021,-1.53459 c -0.10583,-0.21166 -0.37042,-0.37041 -0.60854,-0.37041 h -6.93209 c -0.23812,0 -0.50271,0.15875 -0.60854,0.37041 l -0.82021,1.53459 c -0.15875,0.29104 -0.34396,0.37041 -0.60854,0.37041 h -0.66146 c -0.23812,0 -0.3175,-0.15875 -0.21166,-0.37041 z m 1.00541,0.82021 -3.25437,6.11187 h 6.50875 z"
         class="st1"
         inkscape:connector-curvature="0"
         style="fill:#004a61;stroke-width:0.26458332" />
      <path
         style="fill:#004a61;stroke-width:0.26458332"
         inkscape:connector-curvature="0"
         class="st1"
         d="m 195.62641,179.2264 v 8.62542 c 0,0.23812 -0.18521,0.42333 -0.42333,0.42333 h -0.47625 c -0.23813,0 -0.42334,-0.18521 -0.42334,-0.42333 v -9.92188 c 0,-0.23812 0.18521,-0.42333 0.42334,-0.42333 h 1.11125 c 0.23812,0 0.52916,0.13229 0.68791,0.29104 l 8.30792,8.83709 0.29104,0.29104 v -0.42334 -8.5725 c 0,-0.23812 0.18521,-0.42333 0.42334,-0.42333 h 0.47625 c 0.23812,0 0.42333,0.18521 0.42333,0.42333 v 9.92188 c 0,0.23812 -0.18521,0.42333 -0.42333,0.42333 h -1.11125 c -0.23813,0 -0.52917,-0.13229 -0.68792,-0.29104 l -8.30792,-8.83708 -0.29104,-0.34396 z"
         id="path64" />
      <path
         id="path68"
         d="m 217.29579,182.93057 6.90562,5.05354 c 0.13229,0.10583 0.0794,0.26458 -0.10583,0.26458 h -1.61396 c -0.23813,0 -0.42333,-0.10583 -0.60854,-0.23812 l -5.97959,-4.49792 c -0.1852,-0.13229 -0.37041,-0.23812 -0.60854,-0.23812 h -1.27 v 4.60375 c 0,0.23812 -0.18521,0.42333 -0.42333,0.42333 h -0.47625 c -0.23813,0 -0.42333,-0.18521 -0.42333,-0.42333 v -9.94834 c 0,-0.23812 0.1852,-0.42333 0.42333,-0.42333 h 0.47625 c 0.23812,0 0.42333,0.18521 0.42333,0.42333 v 4.15396 h 1.37584 c 0.23812,0 0.42333,-0.10583 0.60854,-0.23812 l 5.3975,-4.10104 c 0.18521,-0.1323 0.37041,-0.23813 0.60854,-0.23813 h 1.45521 c 0.15875,0 0.23812,0.18521 0.10583,0.26458 l -6.27062,4.65667 -0.42334,0.23813 z"
         class="st1"
         inkscape:connector-curvature="0"
         style="fill:#004a61;stroke-width:0.26458332" />
      <path
         style="fill:#959484;stroke-width:0.26458332"
         inkscape:connector-curvature="0"
         class="st2"
         d="m 151.6262,170.89203 c -0.0794,-0.10584 -0.18521,-0.15875 -0.3175,-0.15875 h -1.95792 c -0.15875,0 -0.29104,0.0794 -0.34395,0.21166 -0.0794,0.1323 -0.0529,0.29105 0.0265,0.42334 2.03729,2.80458 3.54541,6.37646 3.54541,11.43 0,5.10646 -1.56104,8.73125 -3.54541,11.53583 -0.0794,0.13229 -0.10584,0.29104 -0.0265,0.42333 0.0794,0.1323 0.21166,0.21167 0.34395,0.21167 h 1.95792 c 0.13229,0 0.23812,-0.0529 0.3175,-0.15875 1.87854,-2.48708 3.86292,-6.24417 3.83646,-11.95917 0.0265,-5.76791 -1.95792,-9.55145 -3.83646,-11.95916 z"
         id="path84" />
    </g>
  </g>
</svg>
