<?xml version="1.0" encoding="UTF-8"?>
<svg xmlns="http://www.w3.org/2000/svg" viewBox="0 0 130.174 31.393" fill="#005a70">
  <path d="M15.131 10.466h-4.665V20.93h1.938v-4.204h2.668c2.281 0 3.428-1.58 3.428-3.16-.001-1.55-1.134-3.1-3.369-3.1zm-.105 4.531h-2.623v-2.802h2.638c.954 0 1.431.7 1.431 1.386 0 .7-.492 1.416-1.446 1.416zM21.117 20.929h6.663V19.17h-4.725v-2.653h3.816v-1.729h-3.816v-2.593h4.725v-1.729h-6.663zM33.18 10.466h-1.938v10.463h6.201V19.17H33.18zM43.221 14.729c-.954-.358-1.714-.715-1.714-1.565 0-.76.626-1.163 1.297-1.163.552 0 1.207.283 1.431.999l1.684-.745c-.477-1.371-1.893-2.012-3.205-2.012-1.595 0-3.205.954-3.205 3.056 0 2.161 1.699 2.713 3.1 3.25.969.373 1.759.745 1.759 1.61 0 .805-.701 1.222-1.491 1.222-.849 0-1.774-.492-1.878-1.61l-1.938.477c.343 1.953 2.042 2.922 3.726 2.922 1.774 0 3.518-1.088 3.518-3.264.001-2.149-1.713-2.671-3.084-3.177zM62.273 13.417c0-1.476-1.073-2.951-3.264-2.951h-4.621V20.93h1.938v-4.204h1.863l2.504 4.204h2.236l-2.862-4.666c1.446-.433 2.206-1.655 2.206-2.847zm-3.667 1.58h-2.28v-2.802h2.43c1.013 0 1.49.656 1.49 1.341 0 .716-.566 1.461-1.64 1.461zM66.122 10.466h2.029V20.93h-2.029zM72.015 13.172h2.029v10.464h-2.029zM82.342 19.26c-1.476 0-2.922-1.148-2.922-3.592 0-2.489 1.506-3.562 2.922-3.562 1.073 0 2.042.626 2.34 1.714l1.774-.671c-.641-1.908-2.31-2.907-4.144-2.907-2.415 0-4.919 1.729-4.919 5.455 0 3.667 2.429 5.47 4.859 5.47 1.878 0 3.801-1.073 4.546-3.056l-1.669-.924c-.432 1.328-1.609 2.073-2.787 2.073zM95.823 10.466l-4.338 4.233v-4.233h-1.937v10.463h1.937v-3.875l1.312-1.223 3.175 5.098h2.489l-4.144-6.484 4.308-3.979zM101.247 20.929h6.663V19.17h-4.725v-2.653h3.816v-1.729h-3.816v-2.593h4.725v-1.729h-6.663zM117.745 10.466v6.633l-4.591-6.633h-1.759v10.463h1.938v-6.558l4.591 6.558h1.789V10.466z"></path>
  <path fill="none" d="M130.174 0v31.393H0V0z"></path>
</svg>
