<?xml version="1.0" encoding="UTF-8" standalone="no"?>
<!-- Created with Inkscape (http://www.inkscape.org/) -->

<svg
   width="182.94081mm"
   height="29.950788mm"
   viewBox="0 0 182.94081 29.950788"
   version="1.1"
   id="svg1"
   inkscape:version="1.4.2 (ebf0e940d0, 2025-05-08)"
   sodipodi:docname="Logo of Robeco (2022).svg"
   xmlns:inkscape="http://www.inkscape.org/namespaces/inkscape"
   xmlns:sodipodi="http://sodipodi.sourceforge.net/DTD/sodipodi-0.dtd"
   xmlns="http://www.w3.org/2000/svg"
   xmlns:svg="http://www.w3.org/2000/svg">
  <sodipodi:namedview
     id="namedview1"
     pagecolor="#ffffff"
     bordercolor="#000000"
     borderopacity="0.25"
     inkscape:showpageshadow="2"
     inkscape:pageopacity="0.0"
     inkscape:pagecheckerboard="0"
     inkscape:deskcolor="#d1d1d1"
     inkscape:document-units="mm"
     inkscape:zoom="0.73228114"
     inkscape:cx="336.61935"
     inkscape:cy="278.58153"
     inkscape:window-width="1920"
     inkscape:window-height="1011"
     inkscape:window-x="0"
     inkscape:window-y="0"
     inkscape:window-maximized="1"
     inkscape:current-layer="layer1" />
  <defs
     id="defs1">
    <clipPath
       id="clip-1">
      <path
         clip-rule="nonzero"
         d="M 423.40234,20 H 442 v 22 h -18.59766 z m 0,0"
         id="path95" />
    </clipPath>
    <clipPath
       id="clip-2">
      <path
         clip-rule="nonzero"
         d="m 513,19.84375 h 22 V 43 h -22 z m 0,0"
         id="path96" />
    </clipPath>
    <clipPath
       id="clip-3">
      <path
         clip-rule="nonzero"
         d="m 443,19.84375 h 24 V 43 h -24 z m 0,0"
         id="path97" />
    </clipPath>
    <clipPath
       id="clip-4">
      <path
         clip-rule="nonzero"
         d="m 536,19.84375 h 23.27344 V 43 H 536 Z m 0,0"
         id="path98" />
    </clipPath>
  </defs>
  <g
     inkscape:label="Layer 1"
     inkscape:groupmode="layer"
     id="layer1"
     transform="translate(-15.860705,-74.777555)">
    <path
       fill-rule="nonzero"
       fill="#0ca4bb"
       fill-opacity="1"
       d="m 109.77525,81.055011 h 21.11605 v -5.698646 h -21.11605 z m 0,0"
       id="path166"
       style="stroke-width:1.34705" />
    <g
       clip-path="url(#clip-1)"
       id="g167"
       transform="matrix(1.3470488,0,0,1.3470488,-554.5671,48.047055)">
      <path
         fill-rule="nonzero"
         fill="#35251d"
         fill-opacity="1"
         d="m 433.73437,24.296875 c 1.79297,0 2.42969,1.21875 2.42969,2.261719 0,0.46875 -0.17578,2.003906 -2.42969,2.003906 h -6.28125 v -4.265625 z m -10.26953,-4.023437 v 21.371093 h 3.98828 v -9.054687 h 3.53907 l 6.10156,9.054687 h 4.70312 c 0,0 -6.0664,-8.605469 -6.42968,-9.246093 3.07812,-0.597657 4.78515,-2.644532 4.78515,-5.839844 0,-3.996094 -2.45312,-6.285156 -6.72656,-6.285156 z m 0,0"
         id="path167" />
    </g>
    <path
       fill-rule="nonzero"
       fill="#35251d"
       fill-opacity="1"
       d="m 93.305505,80.618273 c 2.152091,0 3.115017,1.51543 3.115017,3.020337 0,1.736431 -1.162857,2.773026 -3.115017,2.773026 H 84.10242 v -5.793363 z m 0.952386,11.165772 c 2.088974,0 3.604423,1.441765 3.604423,3.425504 0,2.025836 -1.615415,3.678076 -3.604423,3.678076 H 84.10242 v -7.10358 z M 78.856274,75.382673 v 28.740547 h 15.933063 c 4.819936,0 8.319083,-3.69386 8.319083,-8.782123 0,-3.199241 -1.51545,-5.651291 -4.156906,-6.866793 1.757456,-1.115524 2.715156,-2.946668 2.715156,-5.2356 0,-5.425027 -3.930669,-7.856031 -7.82445,-7.856031 z m 0,0"
       id="path168"
       style="stroke-width:1.34705" />
    <g
       clip-path="url(#clip-2)"
       id="g169"
       transform="matrix(1.3470488,0,0,1.3470488,-554.5671,48.047055)">
      <path
         fill-rule="nonzero"
         fill="#35251d"
         fill-opacity="1"
         d="m 530.55078,27.089844 -0.17187,-0.25 c -1.36329,-1.972656 -3.17969,-2.972656 -5.40235,-2.972656 -3.8125,0 -7.03125,3.246093 -7.03125,7.09375 0,3.84375 3.21875,7.089843 7.03125,7.089843 2.19922,0 4.08985,-0.980469 5.46875,-2.839843 l 0.17188,-0.234376 3.43359,2.480469 -0.19141,0.238281 c -2.27734,2.867188 -5.35156,4.378907 -8.88281,4.378907 -6.42578,0 -11.45312,-4.878907 -11.45312,-11.113281 0,-6.234376 5.02734,-11.117188 11.45312,-11.117188 3.53125,0 6.60547,1.515625 8.88281,4.378906 l 0.1875,0.238282 z m 0,0"
         id="path169" />
    </g>
    <g
       clip-path="url(#clip-3)"
       id="g170"
       transform="matrix(1.3470488,0,0,1.3470488,-554.5671,48.047055)">
      <path
         fill-rule="nonzero"
         fill="#35251d"
         fill-opacity="1"
         d="m 454.66406,23.816406 c 3.83985,0 7.08203,3.273438 7.08203,7.144532 0,3.871093 -3.24218,7.140624 -7.08203,7.140624 -3.83594,0 -7.07812,-3.269531 -7.07812,-7.140624 0,-3.871094 3.24218,-7.144532 7.07812,-7.144532 m -11.45312,7.144532 c 0,6.234374 5.03125,11.117187 11.45312,11.117187 6.42188,0 11.45313,-4.882813 11.45313,-11.117187 0,-6.234376 -5.03125,-11.117188 -11.45313,-11.117188 -6.42187,0 -11.45312,4.882812 -11.45312,11.117188"
         id="path170" />
    </g>
    <g
       clip-path="url(#clip-4)"
       id="g171"
       transform="matrix(1.3470488,0,0,1.3470488,-554.5671,48.047055)">
      <path
         fill-rule="nonzero"
         fill="#35251d"
         fill-opacity="1"
         d="m 547.82422,23.816406 c 3.83594,0 7.07812,3.273438 7.07812,7.144532 0,3.871093 -3.24218,7.140624 -7.07812,7.140624 -3.83985,0 -7.08203,-3.269531 -7.08203,-7.140624 0,-3.871094 3.24218,-7.144532 7.08203,-7.144532 m -11.45703,7.144532 c 0,6.234374 5.03125,11.117187 11.45703,11.117187 6.42187,0 11.45312,-4.882813 11.45312,-11.117187 0,-6.234376 -5.03125,-11.117188 -11.45312,-11.117188 -6.42578,0 -11.45703,4.882812 -11.45703,11.117188"
         id="path171" />
    </g>
    <path
       fill-rule="nonzero"
       fill="#35251d"
       fill-opacity="1"
       d="m 130.8913,92.525977 v -5.693389 h -21.11605 v 17.343252 h 21.11605 v -5.698644 h -15.90676 v -5.951219 z m 0,0"
       id="path172"
       style="stroke-width:1.34705" />
  </g>
</svg>
