<?xml version="1.0" encoding="utf-8"?>
<!-- Generator: Adobe Illustrator 12.0.0, SVG Export Plug-In . SVG Version: 6.00 Build 51448)  -->
<!DOCTYPE svg PUBLIC "-//W3C//DTD SVG 1.1//EN" "http://www.w3.org/Graphics/SVG/1.1/DTD/svg11.dtd" [
	<!ENTITY ns_svg "http://www.w3.org/2000/svg">
	<!ENTITY ns_xlink "http://www.w3.org/1999/xlink">
]>
<svg  version="1.1" id="Layer_1" xmlns="&ns_svg;" xmlns:xlink="&ns_xlink;" width="175.748" height="16.506"
	 viewBox="0 0 175.748 16.506" overflow="visible" enable-background="new 0 0 175.748 16.506" xml:space="preserve">
<g>
	<path fill-rule="evenodd" clip-rule="evenodd" fill="#3B7890" d="M0.549,11.19c0.343,1.167,1.304,3.57,3.708,3.57
		c1.51,0,2.471-0.961,2.471-2.678c0-1.785-1.373-2.608-2.746-3.364C3.021,8.238,0.549,7.14,0.549,4.737
		c0-1.991,1.579-3.707,4.256-3.707c0.961,0,1.785,0.206,2.609,0.48c0.068,0.755,0.206,1.648,0.343,3.021L7.208,4.6
		C6.865,3.364,6.248,1.716,4.394,1.716c-1.51,0-2.197,1.03-2.197,2.334c0,1.51,1.03,2.266,2.608,3.021
		c1.305,0.687,3.57,1.717,3.57,4.257c0,2.402-1.854,4.119-4.6,4.119c-0.824,0-1.579-0.138-2.128-0.344
		c-0.48-0.137-0.824-0.274-1.098-0.412C0.412,14.074,0.206,12.632,0,11.328L0.549,11.19L0.549,11.19z"/>
	<path fill-rule="evenodd" clip-rule="evenodd" fill="#3B7890" d="M10.984,8.513c0-1.442-0.068-1.51-1.305-1.716V6.385
		c1.03-0.206,1.991-0.412,2.952-0.824v7.346c0,1.441,0.138,1.647,1.511,1.716v0.48H9.474v-0.48c1.373-0.068,1.51-0.274,1.51-1.716
		V8.513L10.984,8.513z M11.808,1.03c0.618,0,1.099,0.48,1.099,1.167c0,0.618-0.48,1.099-1.167,1.099
		c-0.549,0-1.099-0.48-1.099-1.099c0-0.687,0.549-1.167,1.099-1.167H11.808L11.808,1.03z"/>
	<path fill-rule="evenodd" clip-rule="evenodd" fill="#3B7890" d="M16.339,8.513c0-1.442-0.069-1.51-1.305-1.716V6.385
		c0.961-0.206,1.991-0.412,2.884-0.893V7.14c0.412-0.274,0.824-0.549,1.51-0.961c0.618-0.343,1.098-0.618,1.785-0.618
		c0.961,0,1.922,0.618,2.334,1.716c0.618-0.48,1.236-0.892,1.648-1.098c0.618-0.343,1.167-0.618,1.785-0.618
		c1.647,0,2.677,1.167,2.677,2.883v4.531c0,1.373,0.137,1.579,1.373,1.647v0.48H26.5v-0.48c1.305-0.068,1.51-0.274,1.51-1.785V9.268
		c0-1.442-0.412-2.472-1.922-2.472c-0.755,0-1.579,0.412-2.334,1.099c0,0.206,0,0.412,0,0.618l0.068,4.462
		c0,1.373,0.137,1.579,1.305,1.647v0.48h-4.463v-0.48c1.305-0.068,1.511-0.274,1.511-1.647V9.199c0-1.51-0.481-2.402-1.922-2.402
		c-0.824,0-1.647,0.549-2.334,1.099v5.08c0,1.373,0.206,1.579,1.235,1.647v0.48h-4.462v-0.48c1.442-0.068,1.648-0.274,1.648-1.647
		V8.513L16.339,8.513z"/>
	<path fill-rule="evenodd" clip-rule="evenodd" fill="#3B7890" d="M33.159,8.513c0-1.442-0.069-1.51-1.305-1.716V6.385
		c0.961-0.206,1.991-0.412,2.952-0.893V7.14c0.412-0.274,0.824-0.549,1.51-0.961c0.549-0.343,1.098-0.618,1.785-0.618
		c0.961,0,1.922,0.618,2.334,1.716c0.618-0.48,1.236-0.892,1.647-1.098c0.618-0.343,1.167-0.618,1.716-0.618
		c1.716,0,2.678,1.167,2.678,2.883v4.531c0,1.373,0.137,1.579,1.373,1.647v0.48h-4.463v-0.48c1.305-0.068,1.511-0.274,1.511-1.785
		V9.268c0-1.442-0.481-2.472-1.991-2.472c-0.755,0-1.51,0.412-2.334,1.099c0.069,0.206,0.069,0.412,0.069,0.618v4.462
		c0,1.373,0.206,1.579,1.373,1.647v0.48h-4.531v-0.48c1.373-0.068,1.579-0.274,1.579-1.647V9.199c0-1.51-0.549-2.402-1.991-2.402
		c-0.824,0-1.647,0.549-2.265,1.099v5.08c0,1.373,0.137,1.579,1.235,1.647v0.48H31.58v-0.48c1.373-0.068,1.579-0.274,1.579-1.647
		V8.513L33.159,8.513z"/>
	<path fill-rule="evenodd" clip-rule="evenodd" fill="#3B7890" d="M52.931,6.247c2.06,0,3.021,2.06,3.021,4.532
		c0,2.951-1.098,3.912-2.471,3.912c-1.922,0-3.089-1.99-3.089-4.736C50.391,7.62,51.42,6.247,52.931,6.247L52.931,6.247
		L52.931,6.247z M53.137,5.561c-1.922,0-4.668,1.579-4.668,5.149c0,2.334,1.785,4.668,4.737,4.668c2.128,0,4.668-1.716,4.668-5.08
		c0-2.608-1.991-4.737-4.668-4.737H53.137L53.137,5.561z"/>
	<path fill-rule="evenodd" clip-rule="evenodd" fill="#3B7890" d="M60.07,8.513c0-1.442-0.137-1.442-1.373-1.716V6.385
		c1.03-0.206,1.991-0.412,2.952-0.893v1.716c0.412-0.343,0.893-0.618,1.441-1.03c0.618-0.343,1.167-0.618,1.785-0.618
		c1.716,0,2.677,1.167,2.677,2.952v4.462c0,1.373,0.206,1.579,1.373,1.647v0.48h-4.394v-0.48c1.236-0.068,1.441-0.274,1.441-1.785
		V9.199c0-1.373-0.412-2.402-1.991-2.402c-0.824,0-1.716,0.549-2.334,1.099v5.08c0,1.373,0.137,1.579,1.373,1.647v0.48h-4.531v-0.48
		c1.304-0.068,1.579-0.274,1.579-1.716V8.513L60.07,8.513z"/>
	<path fill-rule="evenodd" clip-rule="evenodd" fill="#3B7890" d="M75.38,8.444c-0.55-1.373-1.305-2.197-2.266-2.197
		c-0.893,0-1.442,0.618-1.442,1.442c0,0.961,0.893,1.51,1.854,1.854c1.579,0.618,2.678,1.441,2.678,2.952
		c0,1.922-1.854,2.883-3.501,2.883c-1.167,0-2.197-0.411-2.54-0.755c-0.137-0.343-0.274-1.716-0.274-2.54l0.412-0.137
		c0.412,1.373,1.442,2.814,2.746,2.814c0.824,0,1.579-0.55,1.579-1.579c0-0.961-0.618-1.579-1.716-2.06
		c-1.304-0.549-2.677-1.305-2.677-2.746c0-1.51,1.304-2.815,3.295-2.815c0.824,0,1.442,0.206,1.854,0.412
		c0.137,0.48,0.412,1.785,0.48,2.334L75.38,8.444L75.38,8.444z"/>
	<path fill-rule="evenodd" clip-rule="evenodd" fill="#3B7890" d="M100.094,11.19c0.344,1.167,1.373,3.57,3.707,3.57
		c1.58,0,2.472-0.961,2.472-2.678c0-1.785-1.304-2.608-2.746-3.364c-0.893-0.48-3.433-1.579-3.433-3.982
		c0-1.991,1.579-3.707,4.257-3.707c1.03,0,1.785,0.206,2.608,0.48c0.138,0.755,0.206,1.648,0.412,3.021L106.822,4.6
		c-0.412-1.236-0.961-2.883-2.884-2.883c-1.441,0-2.196,1.03-2.196,2.334c0,1.51,1.098,2.266,2.608,3.021
		c1.373,0.687,3.639,1.717,3.639,4.257c0,2.402-1.854,4.119-4.6,4.119c-0.824,0-1.579-0.138-2.128-0.344
		c-0.55-0.137-0.893-0.274-1.099-0.412c-0.206-0.617-0.412-2.059-0.55-3.363L100.094,11.19L100.094,11.19z"/>
	<path fill-rule="evenodd" clip-rule="evenodd" fill="#3B7890" d="M110.598,8.513c0-1.442-0.137-1.51-1.373-1.716V6.385
		c1.03-0.206,2.06-0.412,2.952-0.824v7.346c0,1.441,0.206,1.647,1.579,1.716v0.48h-4.668v-0.48c1.304-0.068,1.51-0.274,1.51-1.716
		V8.513L110.598,8.513z M111.353,1.03c0.618,0,1.099,0.48,1.099,1.167c0,0.618-0.48,1.099-1.099,1.099
		c-0.617,0-1.098-0.48-1.098-1.099C110.255,1.51,110.735,1.03,111.353,1.03L111.353,1.03L111.353,1.03z"/>
	<path fill-rule="evenodd" clip-rule="evenodd" fill="#3B7890" d="M115.953,8.513c0-1.442-0.138-1.51-1.373-1.716V6.385
		c0.961-0.206,1.99-0.412,2.951-0.893V7.14c0.412-0.274,0.824-0.549,1.511-0.961c0.55-0.343,1.099-0.618,1.785-0.618
		c0.961,0,1.922,0.618,2.334,1.716c0.618-0.48,1.235-0.892,1.647-1.098c0.618-0.343,1.167-0.618,1.785-0.618
		c1.647,0,2.608,1.167,2.608,2.883v4.531c0,1.373,0.206,1.579,1.373,1.647v0.48h-4.462v-0.48c1.305-0.068,1.511-0.274,1.511-1.785
		V9.268c0-1.442-0.481-2.472-1.923-2.472c-0.755,0-1.579,0.412-2.402,1.099c0.068,0.206,0.068,0.412,0.068,0.618v4.462
		c0,1.373,0.206,1.579,1.373,1.647v0.48h-4.531v-0.48c1.373-0.068,1.579-0.274,1.579-1.647V9.199c0-1.51-0.48-2.402-1.991-2.402
		c-0.823,0-1.647,0.549-2.266,1.099v5.08c0,1.373,0.138,1.579,1.236,1.647v0.48h-4.463v-0.48c1.373-0.068,1.648-0.274,1.648-1.647
		V8.513L115.953,8.513z"/>
	<path fill-rule="evenodd" clip-rule="evenodd" fill="#3B7890" d="M132.772,8.513c0-1.442-0.069-1.51-1.305-1.716V6.385
		c0.961-0.206,1.991-0.412,2.884-0.893V7.14c0.411-0.274,0.823-0.549,1.51-0.961c0.618-0.343,1.099-0.618,1.785-0.618
		c0.961,0,1.922,0.618,2.334,1.716c0.618-0.48,1.236-0.892,1.648-1.098c0.617-0.343,1.167-0.618,1.784-0.618
		c1.647,0,2.678,1.167,2.678,2.883v4.531c0,1.373,0.137,1.579,1.373,1.647v0.48h-4.531v-0.48c1.305-0.068,1.511-0.274,1.511-1.785
		V9.268c0-1.442-0.412-2.472-1.923-2.472c-0.755,0-1.579,0.412-2.334,1.099c0,0.206,0,0.412,0,0.618l0.068,4.462
		c0,1.373,0.138,1.579,1.305,1.647v0.48h-4.462v-0.48c1.304-0.068,1.51-0.274,1.51-1.647V9.199c0-1.51-0.48-2.402-1.922-2.402
		c-0.824,0-1.647,0.549-2.334,1.099v5.08c0,1.373,0.205,1.579,1.235,1.647v0.48h-4.462v-0.48c1.441-0.068,1.647-0.274,1.647-1.647
		V8.513L132.772,8.513z"/>
	<path fill-rule="evenodd" clip-rule="evenodd" fill="#3B7890" d="M152.544,6.247c1.991,0,3.021,2.06,3.021,4.532
		c0,2.951-1.099,3.912-2.54,3.912c-1.922,0-3.089-1.99-3.089-4.736c0-2.334,1.098-3.708,2.54-3.708H152.544L152.544,6.247z
		 M152.75,5.561c-1.991,0-4.737,1.579-4.737,5.149c0,2.334,1.785,4.668,4.737,4.668c2.196,0,4.668-1.716,4.668-5.08
		C157.418,7.689,155.427,5.561,152.75,5.561L152.75,5.561L152.75,5.561z"/>
	<path fill-rule="evenodd" clip-rule="evenodd" fill="#3B7890" d="M159.615,8.513c0-1.442-0.138-1.442-1.305-1.716V6.385
		c0.961-0.206,1.991-0.412,2.884-0.893v1.716c0.411-0.343,0.893-0.618,1.51-1.03c0.618-0.343,1.099-0.618,1.717-0.618
		c1.716,0,2.746,1.167,2.746,2.952v4.462c0,1.373,0.137,1.579,1.373,1.647v0.48h-4.394v-0.48c1.235-0.068,1.441-0.274,1.441-1.785
		V9.199c0-1.373-0.48-2.402-1.991-2.402c-0.823,0-1.716,0.549-2.402,1.099v5.08c0,1.373,0.206,1.579,1.441,1.647v0.48h-4.6v-0.48
		c1.305-0.068,1.579-0.274,1.579-1.716V8.513L159.615,8.513z"/>
	<path fill-rule="evenodd" clip-rule="evenodd" fill="#3B7890" d="M174.925,8.444c-0.481-1.373-1.305-2.197-2.266-2.197
		c-0.824,0-1.441,0.618-1.441,1.442c0,0.961,0.961,1.51,1.854,1.854c1.578,0.618,2.677,1.441,2.677,2.952
		c0,1.922-1.785,2.883-3.501,2.883c-1.099,0-2.128-0.411-2.472-0.755c-0.138-0.343-0.343-1.716-0.343-2.54l0.48-0.137
		c0.412,1.373,1.441,2.814,2.746,2.814c0.823,0,1.51-0.55,1.51-1.579c0-0.961-0.617-1.579-1.716-2.06
		c-1.235-0.549-2.608-1.305-2.608-2.746c0-1.51,1.304-2.815,3.227-2.815c0.892,0,1.441,0.206,1.854,0.412
		c0.205,0.48,0.411,1.785,0.48,2.334L174.925,8.444L174.925,8.444z"/>
	<path fill-rule="evenodd" clip-rule="evenodd" fill="#35C1D5" d="M96.937,14.897c-0.068,0-0.206,0-0.275-0.068
		c-0.068,0-0.068,0-0.137-0.068c0,0-0.069,0-0.138,0c0,0.068,0,0.068-0.068,0.068s-0.138,0-0.206,0c0,0,0,0-0.068,0l0,0l0,0v0.068
		l0,0l0,0l0.068,0.069l0,0c-0.068,0-0.068,0-0.068,0s-0.069,0-0.138,0c0,0-0.068,0,0,0.068l0,0c0.068,0,0.068,0.068,0.068,0.068
		h-0.068c-0.068,0-0.137,0-0.137,0c0-0.068,0-0.068,0-0.068c0-0.068,0-0.068,0-0.068s0,0-0.069-0.069c-0.068,0,0,0.069-0.068,0.069
		s-0.068-0.138-0.068-0.138c0.137,0,0.068-0.138,0.068-0.206c0,0-0.068,0-0.138,0v-0.068c-0.068,0-0.068,0-0.068,0
		s-0.068,0-0.068-0.068l0,0c-0.069,0-0.069,0-0.069,0.068c0.069,0,0.069,0,0.069,0v0.068c0,0.068,0,0.068,0,0.068h-0.069
		c0-0.068,0-0.068,0-0.068H95.22c0-0.068-0.068-0.068-0.068-0.137l0,0l0,0c0-0.069,0-0.069,0-0.069l0,0
		c0-0.068-0.068-0.068-0.068-0.068l0,0l0,0c0,0,0,0,0,0.068c-0.069,0-0.069,0-0.069,0s0,0-0.068,0c0,0,0,0.069-0.068,0.069v-0.069
		c0.068,0,0.068,0,0.068-0.068h-0.068c0,0,0.068,0,0.068-0.068l-0.138-0.138l0,0c-0.068-0.138-0.274-0.206-0.274-0.206
		c0,0.068,0,0.068,0,0.068l0,0h-0.068v0.069h0.068c0,0,0.138,0.137,0.068,0.137c0,0-0.068,0.069-0.137,0.069l0,0
		c0,0-0.068-0.069-0.138-0.138l0,0l0,0c0,0.068-0.068,0.068-0.068,0.068v-0.068c0,0,0,0,0-0.068H94.19c0,0,0-0.069,0.068-0.069l0,0
		c0-0.068,0-0.068,0-0.068H94.19l0,0c0,0.068,0,0.068,0,0.068c-0.069,0,0-0.068,0-0.068v-0.068c0,0,0,0,0.068-0.068
		c0.068,0,0-0.069-0.068-0.069c0-0.068,0.137-0.068,0.068-0.137l0,0l0,0c-0.068,0-0.068,0-0.068,0l0,0c0,0.068-0.069,0-0.069,0.068
		v0.068c-0.068,0-0.068,0.069-0.068,0.138l0,0c0,0,0,0,0,0.068c-0.068,0-0.068,0-0.068,0h-0.069l0,0h-0.068c0-0.068,0-0.068,0-0.068
		c0-0.068,0-0.068,0.068,0l0,0c0-0.138,0.069-0.206,0.069-0.206s0-0.068,0.068-0.068c0,0,0-0.069,0.068-0.069
		c-0.068-0.068-0.068-0.068-0.068-0.068s0,0-0.068,0c0,0.068,0,0.068-0.069,0.068v-0.068l-0.068-0.068
		c-0.068,0-0.068,0.068-0.068,0.137c0.068,0,0.068,0.069,0.068,0.138c-0.068,0-0.068,0-0.068,0c0-0.068,0-0.068,0-0.138
		l-0.138,0.069c0,0,0,0,0,0.068h-0.068c0,0,0-0.068,0-0.138l0,0l0,0c0,0,0,0,0.068-0.068l0,0v-0.068
		c0-0.068,0.069-0.068,0.069-0.138c-0.069,0-0.069,0-0.138,0c0,0.069,0,0.069,0,0.069l-0.068,0.068c0.068,0,0,0.068,0,0.068l0,0
		l-0.069-0.068v-0.068c0,0,0,0,0-0.069h0.069c0.068,0,0.068,0,0.068-0.068l0,0v-0.068l0,0h-0.068c0,0-0.069,0-0.138,0.068v-0.068
		l0,0c0,0,0,0-0.068,0h-0.068v-0.069c0,0-0.069,0-0.069,0.069c0-0.069,0-0.138,0-0.138s0.069,0,0.069,0.068l0,0
		c0-0.068,0-0.068,0.068-0.068v-0.068c-0.068,0-0.068,0-0.138,0c0-0.069,0-0.138-0.068-0.138c0,0,0,0,0-0.068v0.068h-0.068v-0.068
		c0,0-0.069,0-0.069,0.068l0,0h-0.068l0,0c0,0-0.068,0-0.068,0.068c0-0.068-0.069-0.137-0.069-0.137c0,0.068,0,0.068,0,0.068
		c0-0.068-0.137-0.068-0.137-0.068l0,0l-0.068,0.068c0-0.068,0-0.068,0-0.068s0,0,0-0.068v0.068c0-0.068,0.068-0.068,0.068-0.068
		c0-0.069,0-0.069,0-0.138c-0.068,0.068-0.068,0-0.068,0s0,0,0-0.068c0,0,0,0-0.069,0c0,0,0,0,0-0.069l0,0
		c0-0.068,0.069-0.068,0-0.137c0,0.068-0.068,0.068-0.068,0.068c0,0.068,0,0.068,0,0.068l0,0c-0.068,0-0.138-0.068-0.138-0.068
		s0,0,0.069,0l0,0c0.068,0,0.068-0.138,0.068-0.206v0.068c-0.068,0-0.068,0-0.068,0c0-0.068,0-0.068,0-0.068
		c0-0.068-0.069-0.068-0.138-0.068l0,0l0,0l-0.068-0.068c0,0,0,0-0.069-0.069c0,0,0-0.068,0-0.137v-0.138
		c0.069,0,0.069-0.068,0.138-0.068l0,0v-0.069c0.068,0,0.068-0.068,0.138-0.068l0,0l0,0c0-0.068,0.068-0.068,0.137-0.137h-0.068
		c0,0,0.068,0,0.068-0.069c0,0,0,0,0.069,0c0,0,0,0,0-0.068c0,0.068,0,0.068,0,0.068c0.068,0,0.068,0,0.068-0.068
		c0,0,0,0,0.068-0.068l0,0l0,0c0.068,0,0.068,0,0.068,0v-0.069c0.069,0,0.069,0,0.069,0s0,0,0-0.068c0.068,0,0.068,0,0.068,0
		c0.068,0,0.068-0.068,0.138-0.068c0-0.068,0-0.068,0-0.138c0.068,0,0.068,0,0.068-0.068c0.068,0,0.068,0,0.138-0.068l0,0
		c0,0,0,0,0.068-0.069l0,0c-0.068,0-0.068-0.068-0.068-0.068l0,0c0,0,0,0,0.068-0.068h0.068c0-0.069,0.068-0.069,0.068-0.069
		s0,0,0.069,0.069c0-0.069,0-0.069,0-0.069c-0.069,0-0.069-0.068-0.069-0.068h-0.068c-0.068,0-0.068,0-0.068,0
		c0-0.068,0-0.068,0-0.068s0,0,0.068,0v-0.068c0.068,0,0.068,0,0.138,0c0,0,0,0,0,0.068c0.068,0,0.137,0,0.137,0.068
		c0,0,0-0.068,0.069-0.068v-0.068c0-0.069,0-0.069,0-0.069h-0.069c0-0.068,0.069-0.068,0.138-0.068c0,0,0,0,0-0.068c0,0,0,0,0-0.069
		c0,0-0.068-0.068-0.068-0.137l0.068,0.068c0,0,0,0.068,0.068,0.068c0,0.069,0,0.069,0,0c0,0,0-0.068,0.068-0.068v0.068l0,0
		c0,0,0-0.068,0.069-0.068L93.915,9.68h0.069c0-0.138,0.137,0,0.137-0.069c0.069-0.068,0.069-0.068,0.069-0.068
		c0.068,0,0.068-0.068,0.068-0.137h0.068c0-0.069,0.069-0.069,0.069-0.069s0,0,0.068,0c0-0.068,0-0.068,0-0.068h0.068
		c0-0.069,0-0.069,0.068-0.069l0,0l0.069-0.137c0-0.068,0.068-0.068,0.068-0.137c0.068,0,0.068,0,0.068,0
		c0.069,0,0.069-0.069,0.069-0.137l0,0h0.068c0-0.069,0-0.138,0-0.206c-0.068,0-0.068,0.068-0.068,0.068s-0.069-0.068,0-0.068l0,0
		V8.513c0,0,0,0,0-0.069c0,0,0,0-0.069,0V8.375c0,0,0-0.068-0.068-0.068c0-0.069,0.138,0,0.138,0l0,0c0,0,0.068,0.068,0.068,0.137
		c0-0.068,0-0.068,0-0.068V8.307l0,0V8.238c0,0,0,0,0.068,0c0-0.069,0-0.069,0-0.069c0-0.069,0-0.069,0-0.069h0.069
		c0,0,0,0.069,0.068,0.138h0.068c0-0.069,0-0.069,0-0.069l0,0c-0.068,0-0.068-0.069-0.068-0.069l0.068-0.068
		c0,0-0.068-0.069,0-0.069l0,0l0,0c0-0.068,0-0.206,0-0.274c0.068,0,0.068,0,0.068,0s0,0,0.069,0V7.62l0,0c0.068,0,0.068,0,0.068,0
		c0-0.068,0-0.068,0-0.068s0,0,0.068,0c0.069,0,0.069,0,0.138,0c0-0.069,0-0.069,0-0.138c0,0,0.068-0.068,0.068-0.137
		c0,0,0,0,0.069,0c0-0.068-0.069-0.068-0.069-0.068l0,0V7.14l0,0V7.071c0.069,0,0.069,0,0.069,0V7.002c-0.138,0,0,0-0.138-0.069l0,0
		c0-0.068,0-0.068,0-0.068H95.7v0.068l0,0c0,0,0.069,0,0.069,0.069c0,0,0-0.069,0.068-0.069c0,0-0.068-0.068,0-0.068
		c0-0.069,0-0.069,0-0.069s0,0,0.068,0l0,0c0,0,0,0,0-0.069V6.659l0,0c0-0.069,0-0.069,0.068-0.069c0-0.068,0-0.068,0-0.068l0,0
		V6.453c0,0,0-0.068,0.069-0.068V6.316l0,0l0.068-0.069l-0.068-0.068c0,0,0,0,0.068,0c0-0.069,0-0.069,0-0.069V6.042V5.973
		l-0.068-0.069h-0.069c0-0.068,0-0.068,0-0.068l-0.068,0.068c0,0,0,0-0.068,0l0,0L95.77,5.973c0,0-0.138,0-0.206,0
		c0.068,0.069,0,0.069,0,0c-0.069,0-0.069,0-0.138,0c0,0-0.138,0-0.138-0.069H95.22c0,0.069-0.137,0.069-0.137,0.069
		c-0.069,0-0.069,0-0.138,0c0,0.069-0.274,0.069-0.344,0.069c0,0,0,0,0-0.069c-0.068,0-0.068,0-0.137,0
		c0,0.069-0.138,0.069-0.138,0.069c-0.068,0-0.068,0-0.068,0s0,0-0.068,0l0,0c0,0.068-0.069,0.137-0.069,0.137
		c-0.068,0-0.137,0.137-0.137,0.137c-0.069,0-0.069,0-0.069,0c0-0.069-0.068-0.069-0.068-0.069c-0.068,0-0.137-0.068-0.137-0.068
		l0,0c0,0,0,0-0.069-0.069c0,0,0,0-0.068,0c0,0,0,0.069-0.068,0.069c-0.069,0-0.138,0-0.138,0h-0.068c-0.068,0-0.068,0-0.068,0
		C93.16,6.247,93.16,6.247,93.16,6.247l0,0c0,0.069-0.137,0.069-0.137,0.069c-0.069,0-0.069,0.069-0.069,0.069
		c-0.068,0-0.068,0.206-0.068,0.206v0.069v0.068c0,0.069,0,0.138,0,0.206l0,0c0,0,0,0,0,0.069c-0.068,0-0.068,0.137-0.068,0.137
		c-0.069,0-0.069,0-0.069,0v0.069c0,0,0,0,0,0.068H92.68c0,0,0,0,0,0.069v0.068v0.069l0,0c-0.068,0-0.068,0.137-0.068,0.206l0,0l0,0
		c0,0,0,0.068,0,0.137c-0.068,0-0.068,0-0.068,0v0.137c0,0-0.069,0.069-0.069,0.137l0,0l0,0v0.069c-0.068,0-0.068,0.069-0.068,0.069
		s0,0,0,0.069c-0.068,0-0.068,0.068-0.068,0.068l0,0c0,0.068,0,0.068,0,0.068l-0.069,0.069c-0.068,0.069-0.068,0.206-0.068,0.206
		c-0.068,0.069-0.068,0.069-0.068,0.069c0,0.068,0,0.068,0,0.068c-0.069,0-0.138,0.138-0.206,0.138v0.068c0,0,0,0-0.068,0.068l0,0
		l0,0l0,0l-0.069,0.138c-0.068,0-0.068,0-0.068,0.068c-0.068,0-0.068,0.069-0.068,0.138c0,0,0,0-0.069,0v0.068
		c-0.068,0-0.068,0-0.068,0v0.068V9.68c-0.068,0-0.137,0.068-0.137,0.068l0,0v0.068c0,0,0,0-0.069,0l0,0c0,0.069,0,0.069,0,0.069
		s0,0,0,0.068c-0.068,0-0.068,0-0.068,0.068H91.17c0,0,0,0,0,0.069h-0.069l0,0c0,0,0,0,0,0.068c0,0-0.068,0-0.068,0.068h-0.068
		c0,0-0.069,0.138-0.138,0.138c0.068,0,0,0,0,0l-0.068,0.068l0,0l-0.138,0.138c-0.137,0-0.137-0.069-0.274-0.138l0,0
		c0,0-0.068,0-0.138,0c0-0.068,0-0.068,0-0.068c0-0.069,0-0.069,0-0.138H90.14c0,0,0,0-0.068,0h-0.068h-0.069l0,0
		c0,0-0.206-0.068-0.206-0.137v-0.069V9.955c-0.068,0-0.137,0.068-0.137,0l0,0h-0.069c0-0.068-0.068,0-0.068,0
		c0-0.068,0-0.344,0-0.412s-0.068-0.068-0.137,0c0-0.068,0-0.068,0-0.137c0,0,0,0-0.069,0V9.336c-0.068,0-0.068,0-0.068,0.069
		c-0.069,0-0.138,0-0.138,0.068c-0.068,0,0.068-0.068,0.068-0.068V9.336l-0.068-0.068c0-0.069,0-0.069,0-0.138h-0.068l0,0
		l-0.068-0.068c0,0,0,0-0.068,0V8.994c0,0,0,0-0.069,0c0-0.069,0-0.138,0-0.138s-0.069-0.068-0.138-0.068l0,0L88.561,8.65
		c-0.068,0-0.068-0.068-0.137-0.068V8.513l0,0l-0.069-0.069l0,0c0,0-0.206-0.068-0.206,0H88.08c0-0.068,0-0.137-0.068-0.137V8.238
		c0,0,0,0-0.068-0.069l0,0c-0.069,0-0.069-0.069-0.069-0.069c0-0.206-0.618-0.549-0.412-0.755c0.069,0,0.137-0.137,0.137-0.137
		h0.068c0-0.138,0.206-0.206,0.206-0.275c0.069,0,0.069,0,0.069-0.068c0.068,0,0.068-0.069,0.137-0.069c0-0.069,0,0,0-0.069
		c0.068,0,0.137-0.068,0.206-0.137c0,0,0.068,0,0.068-0.068c0.069,0,0.069,0,0.069-0.069c0.068,0,0.205-0.068,0.205-0.137
		l0.138-0.069l0,0c0-0.068,0-0.068,0.069-0.137h0.068c0,0,0,0,0-0.068c0,0.068,0,0.068,0,0.068c0.068,0,0.068,0,0.068,0
		c0-0.068,0-0.068,0-0.068c0.068,0,0.068-0.069,0.068-0.069h0.138l0,0c0-0.069,0.068-0.274,0.068-0.206c0,0,0.069-0.068,0.138-0.068
		s0.068-0.138,0.137-0.206c0.069,0,0.069-0.069,0.069-0.137l0,0c0,0,0-0.069,0.068-0.069c0.137,0,0.068,0.137,0.137,0.137
		l0.069-0.068V5.286c0-0.069,0.138-0.206,0.138-0.206c0-0.068,0-0.068-0.069-0.068l0,0c0.069,0,0.138,0,0.206,0V5.08V5.012h0.068
		c0,0,0,0,0.069,0c0-0.069,0-0.069,0-0.069h-0.069c0-0.069,0-0.069,0-0.069c0.069,0,0.069,0,0.069,0l0,0c0.068,0,0.068,0,0.068,0
		c0.068,0,0.068-0.068,0.138-0.068c0-0.069,0-0.137,0-0.137l0,0c0.068,0,0.068-0.069,0.068-0.069c0-0.069,0-0.206,0-0.206
		c0.068,0,0.068,0,0.138-0.068l0.068,0.068c0-0.068,0.068-0.206,0.068-0.206s0.068-0.069,0.138-0.069c-0.069,0-0.069,0-0.069,0
		s0-0.069,0-0.137c0,0,0,0,0.069,0.068V3.982c0,0,0,0,0-0.069l0,0c0.068,0,0.137,0,0.068,0c0-0.068,0.068-0.068,0.068-0.068V3.707
		h0.069c0.068,0,0.068-0.137,0.068-0.206c0.068,0,0.068-0.069,0.068-0.069c0-0.069,0.069-0.069,0.069-0.137c0.068,0,0.068,0,0.068,0
		c0-0.069,0-0.137,0.068-0.137V3.021c0,0,0-0.069,0,0c0-0.069,0.068-0.069,0.068-0.069c0-0.068,0-0.068,0.069-0.068
		c0-0.068,0.068-0.48-0.069-0.549V2.265c0-0.068,0-0.068,0-0.137c0,0-0.068,0-0.068-0.069V1.991h-0.068l0,0
		c0,0-0.068,0.069-0.068,0.138c0.068,0,0.068,0.068,0.068,0.068h-0.068c0,0-0.069,0.137,0.068,0.137c0,0.069,0,0.069,0,0.137l0,0
		c0,0,0,0.069-0.068,0.069v0.069c0,0,0,0,0,0.068h-0.069c-0.068,0-0.068,0.069-0.137,0.138c0,0,0,0,0,0.068v0.068
		c0-0.068-0.069-0.068-0.138-0.068c0,0.068,0,0.068,0,0.068c-0.068,0-0.068,0-0.138,0c0,0,0,0,0-0.068l0,0c0,0,0,0,0.069-0.068
		c0.068,0,0.068-0.069,0.068-0.069s0,0,0-0.069c0.068,0,0.068,0,0.068,0c0-0.068,0-0.137,0-0.206c0,0,0,0,0.069,0
		c-0.069,0-0.069,0-0.069-0.068c0.069,0,0.069-0.069,0.069-0.069c-0.069,0-0.069-0.069-0.069-0.069l0,0V2.197
		c0-0.068,0.206-0.068,0.138-0.137l0,0c-0.068,0-0.068-0.069-0.068-0.138l0,0h0.068c0-0.068,0-0.068,0-0.137
		c0,0,0.068,0,0.068-0.068c0,0,0,0,0-0.068c-0.068,0,0,0,0-0.069c-0.068,0-0.068,0-0.137-0.068c0,0,0.068-0.069,0-0.069
		c0-0.068,0-0.206-0.069-0.274c0,0,0,0-0.068,0V1.03c0,0-0.068,0.068-0.068,0c0.137,0-0.069-0.275-0.138-0.206c0,0,0-0.069,0-0.137
		c-0.068,0-0.068,0-0.137,0c0,0,0,0,0-0.069c-0.138,0-0.275-0.068-0.344-0.137s-0.068-0.069-0.068-0.069
		c-0.069,0-0.138-0.068-0.206-0.068c0,0,0,0-0.068,0c-0.069-0.069-0.344-0.137-0.344-0.137l-0.068-0.069
		c-0.069,0-0.069,0-0.069,0.069c-0.068,0-0.137-0.138-0.274-0.138l0,0c-0.068,0-0.138,0-0.274-0.068c0,0-0.137,0-0.206,0h-0.069
		c-0.068,0-0.137,0-0.205,0c0,0-0.48,0.068-0.48,0c0,0-0.138,0.068-0.206,0.068h-0.069c0,0-0.137,0-0.205,0
		c0,0.069-0.275,0-0.344,0.069c-0.068,0-0.068,0-0.068,0c-0.069,0-0.137,0-0.206,0c0,0.069-0.069,0.069-0.069,0.069
		s-0.137,0-0.206,0c0,0.137-0.206,0.068-0.275,0.068c0,0-0.068,0.069-0.137,0.069h-0.069c-0.068,0-0.068,0-0.137,0
		c0,0.068-0.068,0.068-0.137,0.068l0,0c0,0-0.069,0-0.069,0.069h-0.068c0,0,0,0-0.069,0l0,0l0,0c0,0.069-0.068,0.069-0.068,0.069
		s-0.069,0-0.069,0.068h-0.069c0,0-0.137,0.069-0.206,0.069c0,0-0.138,0.068-0.206,0.068l-0.069,0.069
		c0,0.068-0.137,0.068-0.206,0.068c0,0-0.069,0-0.138,0v0.069h-0.068c-0.069,0-0.069,0.069-0.069,0.069h-0.068
		c0,0.068-0.069,0.068-0.069,0.068v0.069h-0.069c0,0.068-0.068,0.068-0.137,0.068l0,0c0,0,0,0-0.068,0v0.069H84.03
		c-0.069,0.069-0.069,0.069-0.069,0.069s-0.068,0-0.068,0.068c0,0,0,0-0.069,0L83.755,1.51h-0.069l0,0v0.068
		c-0.069,0-0.069,0-0.069,0L83.48,1.648l0,0c0,0,0,0-0.068,0c0,0.068,0,0.068,0,0.068h-0.069v0.068c-0.069,0-0.069,0-0.069,0.069
		c-0.068,0-0.068,0-0.068,0s0,0-0.069,0l-0.069,0.068c0,0,0,0.069-0.068,0.069L82.931,2.06v0.069c0,0-0.137,0.137-0.206,0.137
		c0,0.069,0,0.069,0,0.069c-0.069,0-0.138,0.069-0.138,0.069v0.068c-0.069,0-0.069,0.069-0.137,0.069c0,0,0,0,0,0.069l-0.069,0.068
		c0,0-0.068,0.069-0.068,0.138c-0.068,0-0.068,0.068-0.068,0.068v0.068c0,0.069-0.069,0.069-0.069,0.069v0.138
		c-0.068,0-0.068,0.068-0.068,0.068s-0.069,0.069-0.069,0.137l0,0l0,0c-0.068,0-0.068,0.069-0.068,0.069c0,0.069,0,0.274,0,0.343
		c-0.069,0,0,0.137,0,0.206c-0.069,0-0.069,0.068,0,0.068v0.138c0,0.068,0,0.137,0,0.206c-0.069,0-0.069,0.069,0,0.069
		c0,0.068-0.069,0.206,0,0.206c0,0.068,0.068,0.48,0.068,0.48c0,0.137,0,0.137,0.137,0.206c0,0,0,0.068,0.069,0.068
		c0,0.069,0,0.206,0.068,0.206h0.068c0,0.069,0.137,0.274,0.137,0.274s0.069,0.069,0.138,0.138l0.137,0.274
		c0,0.069,0.068,0.137,0.068,0.137l0.069,0.137c0,0.069,0.206,0.275,0.206,0.343c0.069,0.069,0.137,0.137,0.206,0.206
		c0.069,0.137,0.206,0.274,0.274,0.412c0.069,0.068,0.206,0.137,0.275,0.206c0,0.069,0.068,0.206,0.068,0.275
		c0,0-0.48,0.412-0.687,0.549c0,0.068-0.412,0.343-0.549,0.412c-0.069,0.068-0.138,0-0.207,0.068
		c-0.137,0.068-0.274,0.274-0.343,0.344c-0.068,0-0.274,0.205-0.274,0.205c-0.069,0-0.206,0.138-0.206,0.138
		c-0.068,0-0.068,0.138-0.137,0.138c-0.137,0.068-0.48,0.411-0.48,0.48c-0.069,0.068-0.137,0.068-0.206,0.137
		c0,0-0.068,0.069-0.068,0.138h-0.069l-0.137,0.138l-0.069,0.205c0,0,0,0.069-0.068,0.069c0,0,0,0.068-0.069,0.068h-0.069
		c0,0.068,0,0.068,0,0.068h-0.068l-0.137,0.138c0,0.068,0,0.068-0.069,0.068l-0.069,0.206c-0.068,0-0.206,0.206-0.206,0.206h-0.069
		c0,0.068,0,0.206,0,0.274l-0.069,0.068l0,0c0,0.069,0,0.069,0,0.138h-0.137c0,0.068,0,0.068,0,0.068h0.069l-0.069,0.138
		c0,0.068,0,0.068,0,0.068s0,0,0,0.069c0,0,0,0.068-0.068,0.137c0,0.068,0,0.138-0.069,0.206c0.069,0.138,0,0.344,0.137,0.412
		c-0.068,0.068,0.069,0.343,0.069,0.412c0.068,0,0.068,0.068,0.068,0.068c-0.068,0-0.068,0.068-0.068,0.137
		c0.068,0,0.137,0.206,0.274,0.206c0,0,0,0,0,0.069c0,0-0.137,0.068-0.068,0.137l0,0c0,0,0.068,0.069,0.137,0.138l0,0
		c0,0,0,0-0.069,0c0.069,0.068,0.069,0.068,0.069,0.068l0.068,0.068v0.069l0.069,0.068c0.069,0,0.137,0.068,0.206,0.138
		c0,0,0.137,0,0.137,0.068c0,0,0.069,0,0.069,0.068c0.068,0,0.137,0.069,0.206,0.069c0.069,0.068,0.206,0.068,0.275,0.137h0.068
		c0.069,0,0.138,0,0.138,0c0.068,0,0.206,0,0.274,0.068c0.069,0,0.206,0,0.206,0c0.068,0,0.206,0.069,0.274,0
		c0,0,0.069,0,0.069,0.069c0.068,0,0.137,0,0.206-0.069c0.069,0,0.138,0,0.206,0l0.069,0.069c0.068,0,0.206,0,0.206,0h0.137
		c0.068,0,0.206,0,0.274,0c0,0,0.344,0,0.412-0.069c0.068,0,0.275,0.069,0.275,0c0.068,0,0.137,0,0.137,0
		c0.068,0,0.206,0,0.274-0.068c0,0,0.069,0.068,0.069,0c0.068,0,0.137,0,0.206,0c0,0,0.068,0,0.137,0c0,0,0.137-0.068,0.206-0.137
		c0,0,0.274,0,0.274-0.069c0.068,0,0.068,0,0.137,0l0,0l0.069-0.068h0.068c0.069,0,0.069,0,0.137,0c0,0,0.069-0.068,0.069,0
		c0.069,0,0.137-0.068,0.137-0.068l0.069-0.069c0.068,0,0.206,0,0.206-0.068c0.068,0,0.206-0.068,0.206-0.068
		c0.069,0,0.138,0,0.206,0l0.069-0.069c0.068,0,0.137,0.069,0.137,0c0.069,0,0.137-0.068,0.137-0.137h0.137
		c0.069,0,0.138,0,0.138-0.068c0,0,0.068-0.069,0.137-0.069h0.068c0.069,0,0.137,0,0.206-0.068c0,0,0.274-0.068,0.343-0.068
		c0-0.069,0-0.138,0-0.138c0.069,0,0.069-0.068,0.138-0.068c0,0,0.069,0,0.069-0.069c0.068,0,0.137,0,0.137,0
		c0.068,0,0.137-0.068,0.137-0.068c0.069,0,0.138-0.137,0.138-0.137c0.069,0,0.138,0,0.138-0.069c0.068,0,0.068,0,0.137-0.068
		c0,0,0.207-0.068,0.275-0.068h0.068c0-0.069,0-0.069,0-0.069h0.068c0.068,0,0.48-0.274,0.48-0.274s0.069,0.069,0.138,0.138h0.068
		c0,0.068,0.206,0.206,0.206,0.274c0.069,0.068,0.344,0.206,0.344,0.274c0.068,0.068,0.274,0.068,0.343,0.206l0,0
		c0.069,0,0.069,0.068,0.138,0.068l0,0l0.068,0.069c0,0,0.068,0,0.068,0.068v0.068c0.069,0,0.069,0,0.069,0c0.068,0,0.068,0,0.068,0
		c0,0.138,0.068,0.069,0.138,0.206c0,0,0,0,0-0.068c0.068,0,0.137,0.068,0.137,0.068v0.068c0,0,0,0,0.069,0c0,0,0,0,0,0.069
		c0,0,0,0,0.068,0c-0.068,0-0.068,0-0.068,0c0,0.068,0.068,0.068,0.068,0.068c0.068,0,0.068,0,0.068,0h0.138v0.068h0.068v0.069
		h0.068c0,0,0.069-0.138,0.069-0.206c0,0.068,0.068,0.068,0.068,0.068v0.068c0.068,0,0.068,0,0.068,0.069c-0.068,0-0.068,0-0.068,0
		c-0.068,0.068-0.068,0.137-0.068,0.137h0.068l0,0h0.068v-0.068c0.068,0,0.068,0,0.068,0c0.069,0,0.069,0.068,0.069,0.068h0.068
		l0.068,0.069h-0.068l0,0c0,0,0,0-0.068,0l0,0c0,0,0,0.068,0,0c-0.069,0-0.069,0-0.069,0h-0.068l0,0c0,0,0,0,0,0.068
		c0,0,0,0,0.068,0c0,0,0,0,0.069,0c0,0,0,0,0,0.068h0.068l0,0c0,0.068,0,0.138,0.138,0.068c-0.069,0-0.069,0-0.069,0h0.069
		c0-0.068,0-0.068,0-0.068s0,0,0-0.068c0.068,0,0.068,0,0.137,0l0,0l0,0v0.068v0.068c-0.068,0-0.068,0.069-0.068,0.069
		c0,0.068,0.068,0.137,0.068,0.137c0,0.069,0.138,0.069,0.138,0.069c0,0.068,0.137,0.137,0.137,0.137
		c0.069,0,0.138,0.138,0.138,0.138c0,0.137,0.206,0.206,0.206,0.206c0.068,0.068,0.138,0.206,0.206,0.206
		c0.068,0.068,0.137,0.068,0.206,0.137c0.068,0,0.137,0.068,0.206,0c0.068,0,0.068,0,0.137,0s0.068,0,0.138-0.068l0,0
		c0.068,0,0.068,0,0.068,0c0-0.068,0-0.137,0-0.068c0,0,0.068,0,0.068,0.068l0,0l0.069-0.068c0,0,0,0,0.068,0l0,0v-0.068
		c0.068,0,0.138,0,0.138,0c0.068,0,0.068,0,0.068,0c0.068,0,0.137,0,0.206,0c0.068-0.069,0.617-0.344,0.823-0.412
		c0.069,0,0.138,0,0.138,0c0.068,0,0.206,0,0.274-0.069l0.068,0.069c0.069-0.069,0.138-0.138,0.206-0.206c0.069,0,0.069,0,0.138,0
		c0,0,0.274-0.206,0.343-0.275c0.069,0,0.138,0,0.207,0l0.205-0.137c0-0.068,0.068-0.068,0.068-0.138
		C97.142,15.103,97.005,14.966,96.937,14.897L96.937,14.897z M89.591,1.03L89.591,1.03c0.068,0.068,0.068,0.068,0.068,0.137l0,0l0,0
		h0.068v0.068c0,0,0,0,0.068,0c0,0.069,0.069,0.206,0.069,0.206c0,0.069,0.068,0.137,0.068,0.137c0,0.069,0,0.138,0,0.138
		c0,0.068,0,0.137,0.069,0.137c0,0.068,0,0.137,0,0.206l0,0c-0.069,0-0.069,0-0.069,0c0,0.069,0,0.069,0,0.069l0,0
		c0,0.068,0,0.068,0,0.068l0,0c0,0.068,0,0.068,0,0.137c0,0,0,0,0,0.069h-0.068l0,0c0,0,0.068,0.137-0.069,0.206h-0.068l0,0
		c0-0.069-0.068-0.138,0-0.206l0,0c0-0.069-0.068-0.069,0-0.138l0,0c0,0,0-0.068,0.068-0.068c0-0.068-0.068-0.137-0.068-0.206V1.785
		c0-0.068,0-0.068,0-0.068c0-0.068,0-0.068-0.068-0.138V1.441c0,0,0-0.137-0.068-0.137V1.235c0,0,0-0.068-0.069-0.068
		c0-0.069,0-0.137,0-0.137H89.591L89.591,1.03z M89.521,3.158c0,0,0-0.069,0.069-0.069V3.021c0-0.069,0-0.069,0.068-0.069
		c0-0.068,0-0.137,0-0.137s0-0.069,0.068-0.069l-0.068-0.069c0.068,0,0.137,0.069,0.068,0.069c0,0,0,0,0,0.069l0,0v0.206
		c-0.068,0-0.068,0.138-0.068,0.138l0,0v0.068l0,0c-0.068,0-0.068,0-0.068,0v0.069l0,0c0,0,0,0,0,0.068
		c0-0.068-0.069-0.068-0.069-0.068V3.158L89.521,3.158z M89.247,3.913c0-0.068,0-0.068,0-0.068c0-0.069,0-0.138,0-0.206h0.069
		c0-0.069,0-0.069,0-0.069l0,0V3.501h0.068l0,0l0,0c0.068,0,0.068,0,0.068,0h0.068c0,0.068,0,0.068,0,0.068h-0.068v0.069
		c0,0,0,0,0,0.068l0,0c0,0,0,0,0,0.069c0,0-0.068,0-0.068,0.069c-0.068,0-0.068,0.068-0.068,0.068s0,0.069-0.069,0.069l0,0
		C89.247,3.913,89.247,3.913,89.247,3.913L89.247,3.913L89.247,3.913z M83.824,6.453c0,0,0,0-0.068,0c0-0.068,0-0.137,0-0.137
		c-0.069,0-0.069-0.069-0.069-0.069s0,0-0.069,0c0.069,0,0-0.068,0-0.068c-0.069,0-0.137-0.069-0.137-0.137l0,0l0,0
		c0-0.069-0.068-0.069-0.068-0.138l-0.069-0.068c0,0,0-0.069-0.069-0.069c0-0.068,0-0.068,0,0c0-0.068-0.068-0.137-0.068-0.137
		V5.561V5.492c-0.069,0-0.138-0.206-0.138-0.206s0,0,0-0.069c0,0-0.068,0-0.068,0.069c0-0.069,0-0.069,0-0.137
		c-0.069,0-0.069,0-0.069-0.069c0-0.068,0-0.137,0-0.206l-0.069-0.068c0-0.069,0-0.206-0.068-0.206c0-0.069,0-0.069,0-0.069
		c0-0.068,0-0.137,0-0.137c0-0.068,0-0.068,0-0.068c0-0.069,0-0.069,0-0.069c0-0.068,0-0.206,0-0.206c0-0.068,0-0.137,0-0.206
		C82.862,3.776,83,3.57,83,3.501c0,0,0.068,0,0.068,0.068c0,0-0.206,0.275-0.068,0.343v0.069c-0.069,0-0.069,0.137-0.069,0.137
		v0.069c0,0,0,0.068,0.069,0.068c0,0.069-0.069,0.206,0,0.206c0,0,0,0,0,0.068V4.6c0,0.069,0.068,0.274,0.068,0.274l0.069,0.069l0,0
		V5.08c0,0.137,0.069,0.206,0.137,0.275v0.068c-0.068,0-0.068,0.069-0.068,0.069c0.068,0,0.068,0,0.068,0s0,0.068,0.069,0.068
		c0,0.069,0.069,0.138,0.069,0.138s0,0,0.068,0.068c0,0,0-0.206,0-0.137c0.068,0,0.068,0.069,0.068,0.137c0,0,0,0,0.069,0
		c0,0.069,0,0.137,0.069,0.137c0,0.069,0,0.069,0.069,0.069c0,0.069-0.069,0.137,0,0.137c0,0.069,0.068,0.069,0.068,0.137l0,0l0,0
		c0,0.069,0,0.138,0,0.138c0.069,0,0.069,0,0.069,0s0,0,0,0.068H83.824L83.824,6.453z M80.048,12.151c0,0,0,0.069,0,0.138
		c-0.069,0.068-0.137,0.206-0.137,0.344c0,0.068,0,0.137-0.069,0.137c0-0.068-0.068-0.068-0.068-0.137c0.068,0,0.068,0,0.068,0
		c0-0.069,0-0.069,0-0.138s0-0.138,0-0.206c0.069,0,0.069,0,0.069,0l0.068-0.068c0,0,0.069-0.138,0.069-0.206
		C80.048,12.083,80.048,12.083,80.048,12.151L80.048,12.151z M87.874,8.444c0.069,0,0.069,0,0.069,0l0,0h0.068l0,0l0,0l0,0l0,0
		c0,0.069,0,0.069,0,0.069s-0.068,0-0.138,0V8.444L87.874,8.444z M84.716,3.913c0-0.068,0-0.068,0-0.068l0,0
		c0.069-0.069,0.069-0.138,0.069-0.206c0-0.069-0.069-0.137-0.069-0.206s0-0.137,0.069-0.206c0-0.068,0-0.137,0-0.137
		c0-0.069,0-0.138,0-0.206c0.068,0,0.068-0.068,0.068-0.068l0,0c0-0.138,0.137-0.275,0.137-0.344c0.069,0,0.069-0.068,0.069-0.068
		h0.068c0-0.069,0.069-0.138,0.069-0.138l0,0V2.197c0-0.068,0-0.137,0.137-0.206l0,0l0,0c0-0.069,0-0.069,0-0.069
		c0.069,0,0.137-0.068,0.137-0.068s0,0,0.069,0V1.785l0,0c0.069,0,0.069-0.068,0.137-0.068c0,0,0,0,0-0.068l0,0l0,0l0,0
		c0.069,0,0.137-0.138,0.206-0.138c0-0.069,0.069-0.137,0.137-0.206l0,0c0,0,0,0,0.069,0c0-0.069,0.068,0,0.068,0
		c0.069,0,0.069,0,0.069-0.069c0.069,0,0.069,0,0.069,0c0.068,0,0.137,0,0.137,0l0.068-0.068h0.069
		c0.069-0.069,0.069-0.069,0.069-0.137h0.068l0.069-0.069c0.068,0,0.137,0,0.137,0c0.069,0,0.137,0,0.206-0.069l0.206-0.068
		c0,0,0.069,0,0.069-0.069c0,0,0,0,0.069,0l0,0c0.069,0,0.206-0.068,0.274,0c0.069,0,0.069,0,0.138,0
		c0.069,0,0.343,0.069,0.412,0.137h0.068c0,0,0,0.069,0.069,0.069l0,0V1.03h0.068c0.068,0,0.068,0.068,0.137,0.068
		c0,0.069,0,0.069,0,0.069c0.068,0,0.068,0,0.068,0c0,0.068,0,0.137,0.069,0.137v0.069l0,0c0,0,0.069,0,0.069,0.068l0,0l0,0
		c0,0,0.068,0,0.068,0.069v0.138c0,0,0,0.068,0.068,0.068c0,0.068,0,0.068,0,0.068c0,0.069,0,0.069,0.068,0.069l0,0
		c0,0.068-0.068,0.068-0.068,0.068l0,0V2.06c0,0,0,0.069,0.068,0.069v0.068c0,0,0,0,0.068,0c0,0.068,0,0.137,0,0.137
		s0,0.069,0,0.137h-0.068V2.403l0,0c0-0.069,0-0.069,0-0.069s0,0,0-0.069h-0.068c0,0.069,0,0.138,0,0.138l-0.068,0.068
		c0,0,0,0,0,0.069l0,0v0.206c-0.068,0-0.068,0-0.068,0c0,0.069,0,0.069,0,0.069l0,0c0,0,0,0.137,0,0.206c0,0,0,0-0.069,0v0.069l0,0
		l0,0c-0.069,0-0.069,0.137-0.069,0.137l0,0l0,0v0.069l0,0v0.068v0.069c-0.068,0-0.068,0-0.068,0c0,0.069,0,0.137,0,0.137
		s0,0-0.068,0l0,0c0,0,0,0,0,0.069l0,0l0,0c-0.068,0-0.068,0-0.068,0c0,0.068,0,0.068,0,0.137c0,0-0.068,0.069-0.068,0.137
		c-0.069,0-0.069,0-0.069,0v0.069c0,0,0,0-0.068,0.068l0,0l0,0c0,0.138,0,0.206-0.069,0.275c0,0.068-0.068-0.069-0.068,0
		L88.08,4.394h-0.068c0,0.069-0.068,0.069-0.068,0.069l0,0c0,0.068,0,0.068,0,0.068h-0.069c0,0.069,0,0.069,0,0.069l-0.068,0.069
		h-0.069v0.068v0.069l0,0c-0.068,0-0.068,0.068-0.068,0.137l0,0c-0.068,0-0.068-0.069-0.068-0.069l0,0v0.069h-0.068v0.069
		c0,0-0.069,0-0.069,0.068c0,0,0,0,0,0.069h-0.069l-0.069,0.068l0,0h-0.068c0,0.069,0,0.069,0,0.069l-0.069,0.069c0,0,0,0-0.068,0
		c0,0,0,0,0,0.068l0,0l0,0c0,0-0.137,0.069-0.137,0.137v0.069c-0.069,0-0.069-0.137-0.069-0.069c0,0,0,0-0.069,0c0,0,0,0,0,0.069
		l0,0l-0.068,0.069c0,0,0,0,0,0.068c0,0,0,0-0.069,0l0,0l0,0h-0.068c0,0,0,0,0,0.069c-0.069,0-0.069,0.068-0.069,0.068
		c0,0.069-0.412,0.138-0.343,0.206c0,0.069,0,0.069,0,0.069c-0.069,0-0.137,0-0.137,0C86.021,6.11,86.021,6.11,86.021,6.11
		c-0.068-0.068-0.068-0.068-0.068-0.068c-0.069-0.069-0.138-0.138-0.138-0.138c-0.068-0.068-0.068-0.137-0.137-0.137
		c0-0.068,0-0.068,0-0.137c-0.068-0.069-0.068,0-0.206-0.137h-0.068c-0.069-0.069-0.069-0.206-0.137-0.275
		c0-0.068-0.069-0.137-0.138-0.206c0,0,0-0.069-0.068-0.138c0-0.068-0.137-0.137-0.137-0.137c0-0.068,0-0.068,0-0.137
		c0,0,0-0.069,0-0.137c0,0-0.069-0.069-0.069-0.137c0-0.069-0.137-0.137-0.137-0.206s-0.069-0.069,0-0.137l0,0V3.913L84.716,3.913z
		 M84.373,3.158c0,0,0,0,0.069,0c0-0.069,0-0.069,0-0.138c0,0,0,0,0,0.069l0,0c0-0.069,0.068-0.138,0.068-0.138l0,0
		c0-0.068,0-0.068,0.069-0.137c0,0.068,0,0.068,0,0.068c0,0.068-0.069,0.137-0.069,0.206c0,0,0,0.137-0.068,0.206l0,0l0,0
		c0,0,0,0.068-0.069,0C84.373,3.295,84.304,3.227,84.373,3.158L84.373,3.158z M84.03,6.659c0.069,0.068,0.069,0.068,0.069,0.068
		s0,0.069,0.068,0.069l0,0c0,0.069,0,0.069,0,0.069c0.069,0,0.137,0.068,0.206,0.137c0,0.068,0.069,0.343,0,0.412
		c0-0.068-0.069-0.137-0.069-0.206c0-0.069-0.068-0.138-0.068-0.138l-0.069-0.068l0,0c0-0.069-0.068-0.069-0.068-0.069
		C84.099,6.865,84.03,6.728,84.03,6.659L84.03,6.659z M82.313,13.936c-0.068,0.068-0.068,0.068-0.068,0.068
		c-0.069-0.068-0.069-0.068-0.138-0.068c-0.069,0-0.137-0.068-0.206-0.068c0,0,0-0.068-0.069-0.068
		c-0.068-0.069-0.206-0.138-0.206-0.206c-0.137,0-0.137-0.138-0.206-0.206c0,0,0,0-0.069,0c0-0.068,0-0.138,0.069-0.138
		c0,0,0-0.068-0.069-0.068c0-0.068,0-0.068,0-0.138c0,0-0.137-0.206-0.068-0.274l0,0c0-0.068,0.068-0.137,0.068-0.206v-0.068
		c0-0.068,0-0.068,0-0.138l0.069-0.068c0.069,0,0.069-0.068,0.069-0.138c0.068,0,0.068,0,0.068,0c0,0.069,0,0.069,0.069,0.138
		l-0.069,0.068c0,0.206-0.068,0.344,0.069,0.48c0.068,0,0.068-0.068,0.068-0.137c0-0.138,0.069-0.274,0.137-0.412
		c0,0,0-0.068,0-0.138c0.069-0.068,0-0.205,0-0.274v-0.068V11.74c0.069,0,0.069,0,0.069,0.068c-0.069,0,0,0.206,0.069,0.343
		c0,0-0.069,0-0.069,0.069v0.137l0,0v0.069c-0.069,0-0.069,0.137-0.069,0.137s0,0,0,0.069c0,0.068,0,0.205,0.069,0.274l0,0
		c0,0.068,0,0.206,0.069,0.206c0,0.068,0,0.068,0,0.068c-0.069,0.068,0,0.138,0,0.138c0,0.068,0,0.137,0,0.205l0,0
		c0,0.069,0.137,0.275,0.206,0.275c0.069,0.068,0.069,0.068,0.138,0.068C82.313,13.936,82.313,13.936,82.313,13.936L82.313,13.936z
		 M88.354,12.357L88.354,12.357L88.354,12.357c0,0-0.274,0.138-0.274,0.206c0,0-0.137,0.069-0.206,0.069l-0.068,0.137
		c-0.069,0-0.069,0-0.069,0s0,0.068-0.068,0.068c0,0,0,0-0.068,0c0,0,0,0.069-0.068,0.069l-0.069,0.068
		c-0.069,0-0.069,0.068-0.138,0.068c0,0,0,0,0,0.069h-0.068l0,0c-0.069,0-0.069,0-0.069,0.068c0,0,0,0-0.068,0c0,0,0,0-0.069,0l0,0
		c0,0.068-0.068,0.068-0.068,0.068l-0.069,0.069c-0.069,0-0.069,0-0.069,0l-0.068,0.068c0,0-0.069,0-0.137,0
		c0,0.068-0.069,0.137-0.069,0.137l0,0h-0.069l0,0c-0.068,0-0.068,0.069-0.137,0.069l0,0v0.068c-0.068,0-0.068,0-0.137,0
		c0,0.068-0.069,0-0.069,0.068c0,0,0,0-0.068,0l0,0c0,0.069-0.069,0.069-0.069,0.069h-0.137c-0.069,0.068-0.069,0.068-0.069,0.068
		l0,0l-0.206,0.137h-0.206c0,0.069-0.069,0.069-0.137,0.069l-0.275,0.068h-0.137c0,0-0.068,0-0.068-0.068c-0.069,0-0.206,0-0.275,0
		c0,0.068-0.068,0.068-0.068,0c-0.069,0-0.069,0-0.069,0c0,0.068-0.069,0.068-0.069,0h-0.068c0,0-0.343,0-0.412,0
		c-0.068,0-0.068,0-0.068,0c-0.069,0-0.069,0-0.138-0.069c0,0-0.069,0-0.069-0.068H83.48c-0.068,0-0.068,0-0.068-0.068
		c-0.069,0-0.206,0-0.206,0s-0.069,0-0.069-0.068c-0.069,0-0.275-0.138-0.275-0.206l-0.206-0.069l-0.206-0.068c0,0,0,0,0-0.068
		c-0.069,0-0.137,0-0.137,0c0-0.068,0-0.068,0-0.138c0,0,0-0.137-0.068-0.137c0-0.069-0.069-0.275-0.138-0.344l0,0
		c-0.069,0-0.069,0-0.069-0.068c0,0,0,0,0-0.068c0,0,0.069,0,0.069-0.069l0,0v-0.068v-0.068c0.068-0.138,0.068-0.206,0.138-0.275
		c0-0.068-0.069-0.137-0.069-0.205c0.069-0.069,0.275-0.687,0.275-0.687c0.068,0,0.206-0.275,0.206-0.275
		c0.069,0,0.137-0.205,0.137-0.205c0.068,0,0.068-0.069,0.068-0.069s0-0.068,0.069-0.068c0,0,0,0,0-0.068H83
		c0,0,0.068-0.069,0.068-0.138l0,0l0.138-0.068l0.137-0.069v-0.068h0.069c0,0,0.068,0,0.068-0.068l0,0c0,0,0,0,0.068,0v-0.068
		l0.138-0.138c0.069,0,0.206-0.138,0.206-0.138c0.068,0,0.137-0.068,0.137-0.137c0.069,0,0.206-0.138,0.206-0.206
		c0.068,0,0.068,0,0.137,0c0-0.068,0-0.068,0-0.068s0.069,0,0.137-0.069c0,0,0.549-0.343,0.549-0.412
		c0.412,0.343,0.893,1.03,1.236,1.304c0.068,0.068,0.137,0.138,0.206,0.206c0,0,0.069,0.068,0.138,0.138c0,0,0.068,0,0.068,0.068
		c0.069,0,0.343,0.274,0.412,0.343c0.068,0.069,0.137,0.206,0.274,0.275c0.069,0,0.069,0,0.138,0.068
		c0,0.068,0.068,0.068,0.068,0.137c0.068,0.069,0.48,0.412,0.549,0.481c0.068,0.068,0.138,0.137,0.206,0.137
		c0,0.068,0.069,0.138,0.138,0.138l0,0l0,0C88.492,12.22,88.354,12.289,88.354,12.357L88.354,12.357z M88.904,10.229
		c-0.068,0-0.068,0-0.068,0c0-0.068,0-0.068,0-0.068s0,0-0.069,0l0,0l0,0l0,0l0,0l0.069-0.068l0,0c0,0,0,0,0,0.068h0.068l0,0V10.229
		L88.904,10.229L88.904,10.229z M89.179,10.229h-0.069c0-0.068,0-0.068,0-0.068c-0.068,0-0.068,0-0.068,0l0,0h-0.068
		c0,0,0-0.068-0.068-0.068l0,0l0,0v-0.069c0.068,0.069,0,0.069,0,0.069c0.068,0,0.068,0,0.137,0v-0.069l0,0c0,0,0.068,0,0.068-0.068
		l0,0c0,0,0,0,0.069,0l0,0c0.068,0,0.068,0.068,0.068,0.068c0,0.069,0,0.069,0,0.138S89.247,10.229,89.179,10.229L89.179,10.229z
		 M89.796,10.435h-0.068c-0.068,0-0.068,0-0.137,0.068v-0.068c0,0,0,0,0.068,0l0,0c0-0.068,0-0.068,0-0.138
		c-0.068,0,0-0.068,0-0.068l0,0l0,0c0,0.068,0,0.138,0.068,0.138l0,0c0,0.068,0,0.068,0,0.068H89.796L89.796,10.435L89.796,10.435z
		 M90.071,10.709L90.071,10.709v-0.068l0,0h0.068l0,0c0-0.068,0-0.068,0.068-0.138l0,0C90.208,10.641,90.208,10.709,90.071,10.709
		L90.071,10.709z M91.513,14.623c0,0.068,0,0.068-0.068,0.068l0,0v-0.068c-0.068,0-0.068,0-0.068,0v-0.068h0.068l0,0l0,0
		c0,0,0,0,0,0.068H91.513L91.513,14.623L91.513,14.623z M92.543,15.103L92.543,15.103L92.543,15.103c0,0.069,0,0.069-0.069,0.069
		c0,0,0,0,0-0.069c0,0,0.069-0.068,0-0.068h0.069v-0.068h0.068C92.68,15.035,92.543,15.035,92.543,15.103L92.543,15.103z
		 M94.739,14.623c0,0,0,0,0,0.068h-0.068c0.068,0.069,0.068,0.069,0.068,0.138s-0.068,0.068-0.068,0.138c0,0,0,0.068-0.069,0.068
		c0,0,0,0-0.068,0c0-0.068,0-0.068,0-0.138l0,0c-0.068,0-0.068,0-0.068,0v0.069c-0.068,0-0.068,0-0.068,0
		c0-0.069-0.069-0.138,0-0.138c0,0,0-0.068,0-0.138l0,0c0,0,0,0,0-0.068v-0.068c0,0,0,0-0.069-0.068l0,0l0,0c0,0,0,0,0,0.068
		c-0.068,0-0.068,0.068-0.068,0.068l0.068,0.068h-0.068H94.19l0,0c0-0.068,0-0.068,0-0.068c0-0.068,0-0.068,0-0.068l0,0
		c0,0,0-0.068,0.068-0.068l0,0v-0.069l0,0c0,0,0,0,0.068,0c0,0,0,0,0.069,0l0,0v0.069h0.068l0,0c0,0,0,0,0,0.068
		c0,0,0,0.068,0,0.137c0.068,0,0.068,0,0.068,0c0,0.069,0,0.138,0,0.138c0.068,0,0.068,0,0.138,0h-0.069c0,0,0-0.068,0.069-0.068
		v-0.069l0,0l0,0v-0.068l0,0c0,0,0,0,0-0.068l0,0c0,0,0,0,0-0.068h0.068c0,0.068,0,0.068,0,0.068l0,0c0,0,0,0,0-0.068h0.068v0.068
		C94.808,14.554,94.739,14.554,94.739,14.623L94.739,14.623L94.739,14.623z"/>
</g>
</svg>
