<svg xmlns="http://www.w3.org/2000/svg" viewBox="0 0 420 90"><title>logo-lg</title><g id="Layer_2" data-name="Layer 2"><g id="Layer_1-2" data-name="Layer 1"><polygon points="59.44 21.31 65.3 21.31 74.4 44.53 83.45 21.31 89.18 21.31 76.64 51.73 71.98 51.73 59.44 21.31" style="fill:#00585a;fill-rule:evenodd"/><path d="M108.75,39.52l-5.21-12.08L98.36,39.52ZM101.17,21.1h4.91l13.28,30.42h-5.61l-3.06-7.29H96.42l-3.1,7.29H87.89Z" style="fill:#00585a;fill-rule:evenodd"/><polygon points="124.92 21.31 129.83 21.31 146 42.2 146 21.31 151.22 21.31 151.22 51.52 146.78 51.52 130.14 30.03 130.14 51.52 124.92 51.52 124.92 21.31" style="fill:#00585a;fill-rule:evenodd"/><polygon points="172.73 21.31 178.03 21.31 178.03 46.68 193.89 46.68 193.89 51.52 172.73 51.52 172.73 21.31" style="fill:#00585a;fill-rule:evenodd"/><path d="M218.12,39.52,212.9,27.44l-5.17,12.08ZM210.53,21.1h4.92l13.28,30.42h-5.61l-3.06-7.29H205.79l-3.1,7.29h-5.43Z" style="fill:#00585a;fill-rule:evenodd"/><polygon points="234.33 21.31 239.24 21.31 255.41 42.2 255.41 21.31 260.63 21.31 260.63 51.52 256.19 51.52 239.55 30.03 239.55 51.52 234.33 51.52 234.33 21.31" style="fill:#00585a;fill-rule:evenodd"/><path d="M266.75,47.12l3.19-3.8c2.89,2.5,5.77,3.93,9.52,3.93,3.28,0,5.35-1.51,5.35-3.8v-.09c0-2.16-1.21-3.32-6.81-4.62-6.42-1.55-10.05-3.45-10.05-9v-.09c0-5.18,4.32-8.76,10.31-8.76a16.73,16.73,0,0,1,10.95,3.8l-2.85,4a13.67,13.67,0,0,0-8.19-3.11c-3.1,0-4.91,1.6-4.91,3.59v.08c0,2.33,1.38,3.37,7.15,4.75,6.38,1.55,9.7,3.84,9.7,8.84v.09c0,5.65-4.44,9-10.77,9A18.6,18.6,0,0,1,266.75,47.12Z" style="fill:#00585a;fill-rule:evenodd"/><path d="M295.41,36.5v-.09A15.29,15.29,0,0,1,311,20.79a15.73,15.73,0,0,1,11.81,4.71l-3.41,3.92c-2.41-2.24-5-3.75-8.45-3.75-5.77,0-9.95,4.75-9.95,10.66v.08c0,5.92,4.18,10.75,9.95,10.75,3.71,0,6.08-1.51,8.67-3.93L323,46.68A15.58,15.58,0,0,1,310.76,52,15.2,15.2,0,0,1,295.41,36.5Z" style="fill:#00585a;fill-rule:evenodd"/><polygon points="329 21.31 334.3 21.31 334.3 33.87 348.7 33.87 348.7 21.31 354 21.31 354 51.52 348.7 51.52 348.7 38.79 334.3 38.79 334.3 51.52 329 51.52 329 21.31" style="fill:#00585a;fill-rule:evenodd"/><path d="M386.85,36.5v-.09c0-5.86-4.27-10.74-10.26-10.74s-10.17,4.79-10.17,10.66v.08c0,5.87,4.26,10.75,10.26,10.75S386.85,42.37,386.85,36.5Zm-26,0v-.09a15.78,15.78,0,0,1,31.56-.08v.08a15.78,15.78,0,0,1-31.56.09Z" style="fill:#00585a;fill-rule:evenodd"/><polygon points="405.08 26.23 395.51 26.23 395.51 21.31 420 21.31 420 26.23 410.43 26.23 410.43 51.52 405.08 51.52 405.08 26.23" style="fill:#00585a;fill-rule:evenodd"/><polygon points="67.03 59.48 72.33 59.48 72.33 74.67 86.68 59.48 93.19 59.48 80.65 72.47 93.75 89.69 87.33 89.69 77.03 76.1 72.33 80.93 72.33 89.69 67.03 89.69 67.03 59.48" style="fill:#00585a;fill-rule:evenodd"/><polygon points="99.14 59.48 121.52 59.48 121.52 64.23 104.44 64.23 104.44 72.08 119.58 72.08 119.58 76.83 104.44 76.83 104.44 84.94 121.73 84.94 121.73 89.69 99.14 89.69 99.14 59.48" style="fill:#00585a;fill-rule:evenodd"/><polygon points="129.32 59.48 134.96 59.48 144.15 73.77 153.33 59.48 158.98 59.48 158.98 89.69 153.67 89.69 153.67 68.03 144.15 82.27 143.97 82.27 134.53 68.11 134.53 89.69 129.32 89.69 129.32 59.48" style="fill:#00585a;fill-rule:evenodd"/><path d="M179.88,75.19c4,0,6.51-2.24,6.51-5.39v-.09c0-3.54-2.54-5.39-6.51-5.39h-6.16V75.19ZM168.42,59.48h11.9c7,0,11.46,4,11.46,10.1v.09c0,6.77-5.43,10.31-12.07,10.31h-6v9.71h-5.3Z" style="fill:#00585a;fill-rule:evenodd"/><polygon points="197.65 59.48 220.02 59.48 220.02 64.23 202.95 64.23 202.95 72.08 218.08 72.08 218.08 76.83 202.95 76.83 202.95 84.94 220.24 84.94 220.24 89.69 197.65 89.69 197.65 59.48" style="fill:#00585a;fill-rule:evenodd"/><polygon points="228.21 59.48 233.12 59.48 249.29 80.37 249.29 59.48 254.51 59.48 254.51 89.69 250.07 89.69 233.43 68.2 233.43 89.69 228.21 89.69 228.21 59.48" style="fill:#00585a;fill-rule:evenodd"/><path d="M31.53,8.55l-3.22,6.2H26.9l3.2-6H26.51V7.6h5ZM24.9,12.62a2.29,2.29,0,0,1-2.5,2.25,3.39,3.39,0,0,1-2.73-1.25l.88-.82a2.33,2.33,0,0,0,1.87.94,1.13,1.13,0,0,0,1.24-1.08v0c0-.71-.65-1.11-1.65-1.11h-.58l-.2-.78L23.16,8.7H20.07V7.6h4.72v.94l-2,2c1.08.15,2.1.69,2.1,2ZM18.43,8.55l-3.22,6.2H13.8l3.2-6H13.42V7.6h5Zm-7.2,6.2H10V8.83L8.7,9.19l-.26-1,1.92-.62h.87ZM36.76,0H3.84S0,0,0,3.34V86.66S0,90,3.84,90H18.18V74.75a1.31,1.31,0,0,0,0-.28c-.08-.42-.06-1-.34-1.17-.48-.36-1-.67-1.47-1a23.53,23.53,0,0,1-5.05-4.49A16.36,16.36,0,0,1,8.1,60.64a9.38,9.38,0,0,1,.56-5.37,5.93,5.93,0,0,1,1.13-1.6A1.57,1.57,0,0,0,10,51.84,17.29,17.29,0,0,1,8.83,48.9a8,8,0,0,1-.25-3,4.87,4.87,0,0,1,1.17-2.67c.56-.59,1.27-.68,1.7-1.62a17,17,0,0,1-.9-5.05,7.87,7.87,0,0,1,.19-2.25c.39-1.31,1.31-1.61,2-2,.36-.19.75-.3,1.12-.48s.46-.34.46-1.14c0-3.63.48-7.07,2.4-8.86A4.47,4.47,0,0,1,20,20.6a4.83,4.83,0,0,1,3.42,1.21c2,1.79,2.51,5.23,2.51,8.86,0,.8,0,.94.49,1.14s.79.29,1.17.49c.76.38,1.72.68,2.13,2a7.53,7.53,0,0,1,.2,2.25A16.65,16.65,0,0,1,29,41.59c.45.95,1.2,1,1.78,1.63A4.63,4.63,0,0,1,32,45.88a7.61,7.61,0,0,1-.27,3,16.35,16.35,0,0,1-1.18,3,1.51,1.51,0,0,0,.18,1.83,5.69,5.69,0,0,1,1.18,1.6,8.9,8.9,0,0,1,.59,5.37,16,16,0,0,1-3.38,7.16,24.07,24.07,0,0,1-5.29,4.49c-.51.34-1,.66-1.53,1-.3.21-.27.75-.36,1.17a2.61,2.61,0,0,0,0,.28V90H36.76s3.84,0,3.84-3.34V3.34S40.6,0,36.76,0Z" style="fill:#00585a;fill-rule:evenodd"/></g></g></svg>