<svg xmlns="http://www.w3.org/2000/svg" xml:space="preserve" viewBox="0 0 660 48.5"><path d="M642.3 1.1c-2.3-.6-5.4-.8-22.1-.9L600.7 0v48.4H619c13.6 0 19.2-.2 21.8-.7 11.1-1.9 18.3-10.2 19.1-21.7.9-12.6-5.3-21.4-17.6-24.9m4.2 30.4c-1.8 3.8-5 5.9-10.6 6.9-2.3.4-6.5.6-13.4.6h-10.1V8.9l12.5.2c11.6.2 12.6.2 15 1.2 3 1.2 5.5 3.4 6.8 6.3.8 1.7.9 3 .9 7.2.1 4.7 0 5.4-1.1 7.7m-76.7-15.1.2 16.3-3-2.5c-1.6-1.4-10.3-8.7-19.4-16.3L531.1 0H523v48.4h10.8l-.1-16.3-.1-16.3 2 1.7c.4.3 1.6 1.4 3.5 2.9 3.6 3.1 9.5 8 15.8 13.3l17.3 14.6h8.3V0h-10.9zm-72.1 7.4L484 0h-5.5c-5.2 0-5.5 0-6.2 1-.6 1-25.3 44.5-26.3 46.4l-.5 1h11.6l2.7-5.1 2.6-5 15.3-.1 15.3-.1 2.8 5.2 2.8 5.2h6.5c3.6 0 6.4-.2 6.3-.4s-6.1-11.2-13.7-24.3M483 29.1h-10.2l-5.1-.1 5.2-9.5 5.2-9.4 5 9.4 5 9.5zM396.6 0h-11.7v48.4H433V39h-36.4zm-33.3 47.8c-.2-.2-1.7-1.4-4-3.3-1.9-1.6-4.4-3.6-7-5.7l-10.2-8.3h3.8c5.2 0 8.1-.7 10-2.4 2.6-2.3 2.8-3.3 2.8-13 0-8.1 0-8.8-1-10.6-.6-1.3-1.7-2.5-3.1-3.1l-2-1.1-23.2-.1-23.2-.2v48.4h11.7V30.5h10.6l18.9 17.8h8.3c7 .1 8.1 0 7.6-.5m-45.4-26.2V8.5l13.9.2c12.9.1 13.9.2 14.8 1s.9 1.3.9 5.6c0 3.8-.1 4.9-.8 5.6-.7.8-1.8.8-14.8.8zm-35.8 17.6-19.1-.1-19.3-.1V27.8h22v-8.9h-22V8.6h38.2V0H232v48.4h50.4l-.1-4.6zM156.5 4.5V9h22.4v39.4h11.7V9h22.1V0h-56.2zm-4.8 40.9c-.9-1.7-7.1-12.6-13.9-24.2L125.7 0h-11.3l-13.5 23.8c-7.4 13.1-13.5 24-13.6 24.2s2.4.4 5.6.4h5.8l2.7-5.1 2.7-5 15.3-.1 15.3-.1 2.9 5.2 2.8 5.2h13zm-42.5-16.2 2.5-4.6c1.3-2.4 3.5-6.4 4.9-9l.2-.3c1.4-2.6 2.7-4.8 2.8-4.8s2.5 4.2 5.2 9.4l5 9.4zM74.4.1l-5.3.1L63.5 16c-5 13.6-5.8 15.6-6.2 14.8-.3-.5-2.9-7.1-6.1-14.8l-.4-1-6.1-15h-8.2l-6.2 15.7c-3.4 8.6-6.3 15.7-6.5 15.7s-2.9-7-6.2-15.6L11.9.3l-6-.2C2.6.1 0 .2 0 .4s4.1 11.1 9.2 24.1l9.2 23.7h8.4l6.6-16.3L40 15.6l6.5 16.3L53 48.2l4 .1 4.1.1 9-23.4c3.1-8 5.9-15.3 7.6-19.8 1-2.7 1.6-4.3 1.7-4.4.3-.7-.1-.8-5-.7"/></svg>
